<svg xmlns="http://www.w3.org/2000/svg" xmlns:xlink="http://www.w3.org/1999/xlink" version="1.2" width="82.28mm" height="36.74mm" viewBox="7.2258 -0.0000 46.8243 20.9097">
<style type="text/css">
<![CDATA[
tspan { white-space: pre; }
]]>
</style>
<g transform="translate(8.5358, 6.6717)">
<line stroke-linejoin="round" stroke-linecap="round" stroke-width="0.1000" stroke="currentColor" x1="0.0500" y1="0" x2="45.5143" y2="0"/>
</g>
<g transform="translate(8.5358, 5.6717)">
<line stroke-linejoin="round" stroke-linecap="round" stroke-width="0.1000" stroke="currentColor" x1="0.0500" y1="0" x2="45.5143" y2="0"/>
</g>
<g transform="translate(8.5358, 4.6717)">
<line stroke-linejoin="round" stroke-linecap="round" stroke-width="0.1000" stroke="currentColor" x1="0.0500" y1="0" x2="45.5143" y2="0"/>
</g>
<g transform="translate(8.5358, 3.6717)">
<line stroke-linejoin="round" stroke-linecap="round" stroke-width="0.1000" stroke="currentColor" x1="0.0500" y1="0" x2="45.5143" y2="0"/>
</g>
<g transform="translate(8.5358, 2.6717)">
<line stroke-linejoin="round" stroke-linecap="round" stroke-width="0.1000" stroke="currentColor" x1="0.0500" y1="0" x2="45.5143" y2="0"/>
</g>
<g transform="translate(0.0000, 7.6717)">
<rect x="23.4383" y="-0.1000" width="1.9563" height="0.2000" ry="0.1000" fill="currentColor"/>
</g>
<g transform="translate(0.0000, 7.6717)">
<rect x="20.4121" y="-0.1000" width="1.9563" height="0.2000" ry="0.1000" fill="currentColor"/>
</g>
<g transform="translate(0.0000, 8.6717)">
<rect x="20.4121" y="-0.1000" width="1.9563" height="0.2000" ry="0.1000" fill="currentColor"/>
</g>
<g transform="translate(0.0000, 7.6717)">
<rect x="17.2610" y="-0.1000" width="1.9563" height="0.2000" ry="0.1000" fill="currentColor"/>
</g>
<g transform="translate(0.0000, 8.6717)">
<rect x="17.2610" y="-0.1000" width="1.9563" height="0.2000" ry="0.1000" fill="currentColor"/>
</g>
<g transform="translate(0.0000, 7.6717)">
<rect x="14.1098" y="-0.1000" width="1.9563" height="0.2000" ry="0.1000" fill="currentColor"/>
</g>
<g transform="translate(0.0000, 8.6717)">
<rect x="14.1098" y="-0.1000" width="1.9563" height="0.2000" ry="0.1000" fill="currentColor"/>
</g>
<g transform="translate(0.0000, 9.6717)">
<rect x="14.1098" y="-0.1000" width="1.9563" height="0.2000" ry="0.1000" fill="currentColor"/>
</g>
<g transform="translate(8.5358, 19.2667)">
<line stroke-linejoin="round" stroke-linecap="round" stroke-width="0.1000" stroke="currentColor" x1="0.0500" y1="0" x2="45.5143" y2="0"/>
</g>
<g transform="translate(8.5358, 17.7667)">
<line stroke-linejoin="round" stroke-linecap="round" stroke-width="0.1000" stroke="currentColor" x1="0.0500" y1="0" x2="45.5143" y2="0"/>
</g>
<g transform="translate(8.5358, 16.2667)">
<line stroke-linejoin="round" stroke-linecap="round" stroke-width="0.1000" stroke="currentColor" x1="0.0500" y1="0" x2="45.5143" y2="0"/>
</g>
<g transform="translate(8.5358, 14.7667)">
<line stroke-linejoin="round" stroke-linecap="round" stroke-width="0.1000" stroke="currentColor" x1="0.0500" y1="0" x2="45.5143" y2="0"/>
</g>
<g transform="translate(8.5358, 13.2667)">
<line stroke-linejoin="round" stroke-linecap="round" stroke-width="0.1000" stroke="currentColor" x1="0.0500" y1="0" x2="45.5143" y2="0"/>
</g>
<g transform="translate(8.5358, 11.7667)">
<line stroke-linejoin="round" stroke-linecap="round" stroke-width="0.1000" stroke="currentColor" x1="0.0500" y1="0" x2="45.5143" y2="0"/>
</g>
<a style="color:inherit;" xlink:href="textedit:///home/mike/code/lilypond-scripts/guitar/e-minor-pentatonic.ly:10:12:13">
<g transform="translate(41.6203, 4.6717)">
<path transform="scale(0.0040, -0.0040)" d="M218 136c55 0 108 -28 108 -89c0 -71 -55 -121 -102 -149c-35 -21 -75 -34 -116 -34c-55 0 -108 28 -108 89c0 71 55 121 102 149c35 21 75 34 116 34z" fill="currentColor"/>
</g>
</a>
<a style="color:inherit;" xlink:href="textedit:///home/mike/code/lilypond-scripts/guitar/e-minor-pentatonic.ly:16:8:9">
<g color="rgb(100.0000%, 100.0000%, 100.0000%)">
<g transform="translate(41.6203, 13.2667)">
<rect x="0.1229" y="-0.6658" width="1.2292" height="1.3316" ry="0.0000" fill="currentColor"/>
</g>
</g>
<g transform="translate(41.7432, 13.8984)">
<text font-family="serif" font-weight="bold" font-size="1.7461" text-anchor="start" fill="currentColor">
<tspan>0</tspan>
</text>
</g>
</a>
<g transform="translate(41.6853, 4.6717)">
<rect x="-0.0650" y="0.1861" width="0.1300" height="3.1472" ry="0.0400" fill="currentColor"/>
</g>
<a style="color:inherit;" xlink:href="textedit:///home/mike/code/lilypond-scripts/guitar/e-minor-pentatonic.ly:10:6:7">
<g transform="translate(34.2680, 5.6717)">
<path transform="scale(0.0040, -0.0040)" d="M218 136c55 0 108 -28 108 -89c0 -71 -55 -121 -102 -149c-35 -21 -75 -34 -116 -34c-55 0 -108 28 -108 89c0 71 55 121 102 149c35 21 75 34 116 34z" fill="currentColor"/>
</g>
</a>
<a style="color:inherit;" xlink:href="textedit:///home/mike/code/lilypond-scripts/guitar/e-minor-pentatonic.ly:16:4:5">
<g color="rgb(100.0000%, 100.0000%, 100.0000%)">
<g transform="translate(34.2680, 14.7667)">
<rect x="0.1229" y="-0.6658" width="1.2292" height="1.3316" ry="0.0000" fill="currentColor"/>
</g>
</g>
<g transform="translate(34.3909, 15.3984)">
<text font-family="serif" font-weight="bold" font-size="1.7461" text-anchor="start" fill="currentColor">
<tspan>0</tspan>
</text>
</g>
</a>
<g transform="translate(35.5072, 4.6717)">
<rect x="-0.0650" y="-2.5000" width="0.1300" height="3.3139" ry="0.0400" fill="currentColor"/>
</g>
<a style="color:inherit;" xlink:href="textedit:///home/mike/code/lilypond-scripts/guitar/e-minor-pentatonic.ly:10:8:9">
<g transform="translate(37.2941, 5.1717)">
<path transform="scale(0.0040, -0.0040)" d="M218 136c55 0 108 -28 108 -89c0 -71 -55 -121 -102 -149c-35 -21 -75 -34 -116 -34c-55 0 -108 28 -108 89c0 71 55 121 102 149c35 21 75 34 116 34z" fill="currentColor"/>
</g>
</a>
<a style="color:inherit;" xlink:href="textedit:///home/mike/code/lilypond-scripts/guitar/e-minor-pentatonic.ly:10:9:10">
<g transform="translate(37.5536, 2.1217)">
<path transform="scale(0.0022, -0.0022)" d="M129 129h130c0 -52 32 -100 81 -100c10 0 14 -8 14 -15s-4 -14 -14 -14c-49 0 -97 14 -146 14s-96 -14 -145 -14c-10 0 -15 7 -15 14s5 15 15 15c49 0 80 48 80 100zM0 250l129 250c3 7 13 3 21 0c14 -6 28 -14 44 -14s31 8 45 14c2 1 2 1 4 1c8 0 16 -9 16 -21v-351
h-130v215c0 15 -11 23 -20 23c-5 0 -9 -2 -11 -7l-66 -127c-4 -7 -9 -9 -15 -9c-9 0 -19 7 -19 17c0 3 0 6 2 9z" fill="currentColor"/>
</g>
</a>
<a style="color:inherit;" xlink:href="textedit:///home/mike/code/lilypond-scripts/guitar/e-minor-pentatonic.ly:16:6:7">
<g color="rgb(100.0000%, 100.0000%, 100.0000%)">
<g transform="translate(37.2941, 14.7667)">
<rect x="0.1229" y="-0.6487" width="1.2292" height="1.2974" ry="0.0000" fill="currentColor"/>
</g>
</g>
<g transform="translate(37.4171, 15.4155)">
<text font-family="serif" font-weight="bold" font-size="1.7461" text-anchor="start" fill="currentColor">
<tspan>2</tspan>
</text>
</g>
</a>
<g transform="translate(38.5334, 4.6717)">
<rect x="-0.0650" y="-3.0000" width="0.1300" height="3.3139" ry="0.0400" fill="currentColor"/>
</g>
<a style="color:inherit;" xlink:href="textedit:///home/mike/code/lilypond-scripts/guitar/e-minor-pentatonic.ly:11:4:5">
<g transform="translate(51.0739, 2.1717)">
<path transform="scale(0.0040, -0.0040)" d="M218 136c55 0 108 -28 108 -89c0 -71 -55 -121 -102 -149c-35 -21 -75 -34 -116 -34c-55 0 -108 28 -108 89c0 71 55 121 102 149c35 21 75 34 116 34z" fill="currentColor"/>
</g>
</a>
<a style="color:inherit;" xlink:href="textedit:///home/mike/code/lilypond-scripts/guitar/e-minor-pentatonic.ly:11:5:6">
<g transform="translate(51.2992, 1.1267)">
<path transform="scale(0.0022, -0.0022)" d="M129 149h7c36 0 74 -13 111 -40c19 -14 40 -21 59 -21c22 0 40 10 46 31c2 7 7 11 13 11c7 0 15 -5 15 -14v-5c-19 -71 -84 -111 -146 -111c-38 0 -75 15 -101 47c-12 15 -28 22 -44 22c-29 0 -57 -21 -60 -56c-1 -9 -7 -13 -14 -13s-15 5 -15 14c0 173 233 163 233 341
c0 56 -14 116 -62 116c-33 0 -66 -15 -66 -44c0 -24 31 -37 31 -61c0 -34 -27 -61 -61 -61s-61 27 -61 61c0 78 74 134 157 134c98 0 191 -55 191 -145c0 -144 -135 -156 -233 -206z" fill="currentColor"/>
</g>
</a>
<a style="color:inherit;" xlink:href="textedit:///home/mike/code/lilypond-scripts/guitar/e-minor-pentatonic.ly:17:4:5">
<g color="rgb(100.0000%, 100.0000%, 100.0000%)">
<g transform="translate(51.0739, 11.7667)">
<rect x="0.1229" y="-0.6658" width="1.2292" height="1.3316" ry="0.0000" fill="currentColor"/>
</g>
</g>
<g transform="translate(51.1968, 12.3984)">
<text font-family="serif" font-weight="bold" font-size="1.7461" text-anchor="start" fill="currentColor">
<tspan>3</tspan>
</text>
</g>
</a>
<g transform="translate(51.1389, 4.6717)">
<rect x="-0.0650" y="-2.3139" width="0.1300" height="3.3139" ry="0.0400" fill="currentColor"/>
</g>
<a style="color:inherit;" xlink:href="textedit:///home/mike/code/lilypond-scripts/guitar/e-minor-pentatonic.ly:10:14:15">
<g transform="translate(44.7715, 3.6717)">
<path transform="scale(0.0040, -0.0040)" d="M218 136c55 0 108 -28 108 -89c0 -71 -55 -121 -102 -149c-35 -21 -75 -34 -116 -34c-55 0 -108 28 -108 89c0 71 55 121 102 149c35 21 75 34 116 34z" fill="currentColor"/>
</g>
</a>
<a style="color:inherit;" xlink:href="textedit:///home/mike/code/lilypond-scripts/guitar/e-minor-pentatonic.ly:10:15:16">
<g transform="translate(44.9968, 2.1217)">
<path transform="scale(0.0022, -0.0022)" d="M129 149h7c36 0 74 -13 111 -40c19 -14 40 -21 59 -21c22 0 40 10 46 31c2 7 7 11 13 11c7 0 15 -5 15 -14v-5c-19 -71 -84 -111 -146 -111c-38 0 -75 15 -101 47c-12 15 -28 22 -44 22c-29 0 -57 -21 -60 -56c-1 -9 -7 -13 -14 -13s-15 5 -15 14c0 173 233 163 233 341
c0 56 -14 116 -62 116c-33 0 -66 -15 -66 -44c0 -24 31 -37 31 -61c0 -34 -27 -61 -61 -61s-61 27 -61 61c0 78 74 134 157 134c98 0 191 -55 191 -145c0 -144 -135 -156 -233 -206z" fill="currentColor"/>
</g>
</a>
<a style="color:inherit;" xlink:href="textedit:///home/mike/code/lilypond-scripts/guitar/e-minor-pentatonic.ly:16:10:11">
<g color="rgb(100.0000%, 100.0000%, 100.0000%)">
<g transform="translate(44.7715, 13.2667)">
<rect x="0.1229" y="-0.6658" width="1.2292" height="1.3316" ry="0.0000" fill="currentColor"/>
</g>
</g>
<g transform="translate(44.8944, 13.8984)">
<text font-family="serif" font-weight="bold" font-size="1.7461" text-anchor="start" fill="currentColor">
<tspan>3</tspan>
</text>
</g>
</a>
<g transform="translate(44.8365, 4.6717)">
<rect x="-0.0650" y="-0.8139" width="0.1300" height="3.3139" ry="0.0400" fill="currentColor"/>
</g>
<a style="color:inherit;" xlink:href="textedit:///home/mike/code/lilypond-scripts/guitar/e-minor-pentatonic.ly:11:2:3">
<g transform="translate(47.9227, 3.1717)">
<path transform="scale(0.0040, -0.0040)" d="M218 136c55 0 108 -28 108 -89c0 -71 -55 -121 -102 -149c-35 -21 -75 -34 -116 -34c-55 0 -108 28 -108 89c0 71 55 121 102 149c35 21 75 34 116 34z" fill="currentColor"/>
</g>
</a>
<a style="color:inherit;" xlink:href="textedit:///home/mike/code/lilypond-scripts/guitar/e-minor-pentatonic.ly:17:2:3">
<g color="rgb(100.0000%, 100.0000%, 100.0000%)">
<g transform="translate(47.9227, 11.7667)">
<rect x="0.1229" y="-0.6658" width="1.2292" height="1.3316" ry="0.0000" fill="currentColor"/>
</g>
</g>
<g transform="translate(48.0456, 12.3984)">
<text font-family="serif" font-weight="bold" font-size="1.7461" text-anchor="start" fill="currentColor">
<tspan>0</tspan>
</text>
</g>
</a>
<g transform="translate(47.9877, 4.6717)">
<rect x="-0.0650" y="-1.3139" width="0.1300" height="3.3139" ry="0.0400" fill="currentColor"/>
</g>
<a style="color:inherit;" xlink:href="textedit:///home/mike/code/lilypond-scripts/guitar/e-minor-pentatonic.ly:9:4:5">
<g transform="translate(17.5870, 9.1717)">
<path transform="scale(0.0040, -0.0040)" d="M218 136c55 0 108 -28 108 -89c0 -71 -55 -121 -102 -149c-35 -21 -75 -34 -116 -34c-55 0 -108 28 -108 89c0 71 55 121 102 149c35 21 75 34 116 34z" fill="currentColor"/>
</g>
</a>
<a style="color:inherit;" xlink:href="textedit:///home/mike/code/lilypond-scripts/guitar/e-minor-pentatonic.ly:9:5:6">
<g transform="translate(17.8123, 2.1217)">
<path transform="scale(0.0022, -0.0022)" d="M129 149h7c36 0 74 -13 111 -40c19 -14 40 -21 59 -21c22 0 40 10 46 31c2 7 7 11 13 11c7 0 15 -5 15 -14v-5c-19 -71 -84 -111 -146 -111c-38 0 -75 15 -101 47c-12 15 -28 22 -44 22c-29 0 -57 -21 -60 -56c-1 -9 -7 -13 -14 -13s-15 5 -15 14c0 173 233 163 233 341
c0 56 -14 116 -62 116c-33 0 -66 -15 -66 -44c0 -24 31 -37 31 -61c0 -34 -27 -61 -61 -61s-61 27 -61 61c0 78 74 134 157 134c98 0 191 -55 191 -145c0 -144 -135 -156 -233 -206z" fill="currentColor"/>
</g>
</a>
<a style="color:inherit;" xlink:href="textedit:///home/mike/code/lilypond-scripts/guitar/e-minor-pentatonic.ly:15:5:6">
<g color="rgb(100.0000%, 100.0000%, 100.0000%)">
<g transform="translate(17.5870, 19.2667)">
<rect x="0.1229" y="-0.6658" width="1.2292" height="1.3316" ry="0.0000" fill="currentColor"/>
</g>
</g>
<g transform="translate(17.7099, 19.8984)">
<text font-family="serif" font-weight="bold" font-size="1.7461" text-anchor="start" fill="currentColor">
<tspan>3</tspan>
</text>
</g>
</a>
<g transform="translate(18.8262, 4.6717)">
<rect x="-0.0650" y="-0.0000" width="0.1300" height="4.3139" ry="0.0400" fill="currentColor"/>
</g>
<a style="color:inherit;" xlink:href="textedit:///home/mike/code/lilypond-scripts/guitar/e-minor-pentatonic.ly:9:8:9">
<g transform="translate(20.7382, 8.6717)">
<path transform="scale(0.0040, -0.0040)" d="M218 136c55 0 108 -28 108 -89c0 -71 -55 -121 -102 -149c-35 -21 -75 -34 -116 -34c-55 0 -108 28 -108 89c0 71 55 121 102 149c35 21 75 34 116 34z" fill="currentColor"/>
</g>
</a>
<a style="color:inherit;" xlink:href="textedit:///home/mike/code/lilypond-scripts/guitar/e-minor-pentatonic.ly:15:7:8">
<g color="rgb(100.0000%, 100.0000%, 100.0000%)">
<g transform="translate(20.7382, 17.7667)">
<rect x="0.1229" y="-0.6658" width="1.2292" height="1.3316" ry="0.0000" fill="currentColor"/>
</g>
</g>
<g transform="translate(20.8611, 18.3984)">
<text font-family="serif" font-weight="bold" font-size="1.7461" text-anchor="start" fill="currentColor">
<tspan>0</tspan>
</text>
</g>
</a>
<g transform="translate(21.9774, 4.6717)">
<rect x="-0.0650" y="-0.0000" width="0.1300" height="3.8139" ry="0.0400" fill="currentColor"/>
</g>
<g transform="translate(9.3358, 15.5167)">
<path transform="scale(0.0040, -0.0040)" d="M267 -425c0 -24 -23 -27 -43 -27c-45 0 -84 31 -84 75c0 82 118 130 234 130c104 0 215 -22 215 -103c0 -51 -31 -86 -69 -110c58 -11 102 -36 102 -91c0 -90 -94 -158 -179 -158c-41 0 -80 15 -108 52c-2 2 -3 5 -3 8c0 12 16 25 28 25c4 0 8 -1 10 -4
c11 -15 27 -21 44 -21c43 0 95 40 95 93c0 46 -49 63 -100 63h-1c-6 0 -8 8 -8 16c0 11 5 24 18 24c36 0 69 39 69 77c0 45 -36 68 -80 76c-11 -62 -31 -173 -40 -220c-20 -102 -84 -202 -159 -202c-44 0 -68 34 -96 53c-3 2 -4 5 -4 9c0 11 12 26 24 26c3 0 5 0 7 -2
c20 -13 36 -35 65 -35c65 0 89 99 89 195v8c0 35 9 109 18 163c-39 -13 -70 -40 -70 -70c0 -15 8 -28 19 -34c4 -3 7 -9 7 -16zM301 -83c-43 -41 -114 -105 -173 -105c-33 0 -52 21 -78 32c-3 1 -5 5 -5 9c0 11 11 28 25 28c2 0 5 -1 7 -2c16 -7 30 -18 50 -18
c34 0 65 27 91 54c100 102 175 219 214 336c9 27 33 37 57 37c29 0 57 -15 57 -31c0 -2 -1 -4 -2 -6c-4 -116 -9 -233 -16 -350v-9c0 -16 3 -30 21 -30c16 0 35 13 53 19l2 1c5 0 9 -8 9 -17c0 -8 -3 -16 -12 -19c-29 -9 -54 -34 -87 -34c-32 0 -45 29 -53 58
c-16 61 -26 125 -31 191c-27 -35 -56 -68 -87 -101c11 -20 33 -33 64 -33c4 0 8 1 12 1c5 0 8 -7 8 -15c0 -25 -34 -29 -56 -29c-32 0 -56 12 -70 33zM288 540c0 -23 -23 -24 -42 -24c-49 0 -91 36 -91 84c0 95 125 120 232 120c49 0 119 -41 171 -41c38 0 77 15 110 41
c3 2 6 3 9 3c11 0 23 -11 23 -19c0 -2 -1 -3 -2 -4c-40 -45 -95 -71 -148 -71c-15 0 -31 2 -44 6c-9 -59 -26 -151 -35 -193c-22 -96 -88 -185 -163 -185c-52 0 -81 42 -115 64c-3 2 -4 5 -4 9c0 11 12 26 23 26c2 0 5 -1 7 -2c23 -15 43 -46 75 -46c56 0 82 77 85 150
c2 45 13 150 22 208c-12 3 -23 5 -32 5c-51 0 -113 -21 -113 -70c0 -18 10 -36 24 -43c5 -3 8 -10 8 -18z" fill="currentColor"/>
</g>
<g transform="translate(7.2258, 2.3967)">
<path transform="scale(0.0040, -0.0040)" d="M0 -56v87c0 14 11 25 25 25h50c159 0 271 136 362 270c11 17 37 -1 26 -18c-99 -144 -215 -364 -388 -364h-75z" fill="currentColor"/>
</g>
<g transform="translate(7.2258, 19.5417)">
<path transform="scale(0.0040, -0.0040)" d="M0 56h75c173 0 289 -220 388 -364c11 -17 -15 -35 -26 -18c-91 134 -203 270 -362 270h-50c-14 0 -25 11 -25 25v87z" fill="currentColor"/>
</g>
<g transform="translate(7.2258, 10.9692)">
<rect x="0.0000" y="-8.3925" width="0.4500" height="16.7850" ry="0.0000" fill="currentColor"/>
</g>
<g transform="translate(8.4758, 10.9692)">
<rect x="0.0000" y="-8.3475" width="0.1600" height="16.6950" ry="0.0500" fill="currentColor"/>
</g>
<a style="color:inherit;" xlink:href="textedit:///home/mike/code/lilypond-scripts/guitar/e-minor-pentatonic.ly:9:2:3">
<g transform="translate(14.4358, 10.1717)">
<path transform="scale(0.0040, -0.0040)" d="M218 136c55 0 108 -28 108 -89c0 -71 -55 -121 -102 -149c-35 -21 -75 -34 -116 -34c-55 0 -108 28 -108 89c0 71 55 121 102 149c35 21 75 34 116 34z" fill="currentColor"/>
</g>
</a>
<g transform="translate(9.3358, 5.6717)">
<path transform="scale(0.0040, -0.0040)" d="M266 -635h-6c-108 0 -195 88 -195 197c0 58 53 103 112 103c54 0 95 -47 95 -103c0 -52 -43 -95 -95 -95c-11 0 -21 2 -31 6c26 -39 68 -65 117 -65h4zM461 -203c68 24 113 95 113 164c0 90 -66 179 -173 190c24 -116 46 -231 60 -354zM74 28c0 -135 129 -247 264 -247
c28 0 55 2 82 6c-14 127 -37 245 -63 364c-79 -8 -124 -61 -124 -119c0 -44 25 -91 81 -123c5 -5 7 -10 7 -15c0 -11 -10 -22 -22 -22c-3 0 -6 1 -9 2c-80 43 -117 115 -117 185c0 88 58 174 160 197c-14 58 -29 117 -46 175c-107 -121 -213 -243 -213 -403zM335 -262
c-188 0 -333 172 -333 374c0 177 131 306 248 441c-19 62 -37 125 -45 190c-6 52 -7 104 -7 156c0 115 55 224 149 292c6 5 14 5 20 0c71 -84 133 -245 133 -358c0 -143 -86 -255 -180 -364c21 -68 39 -138 56 -207c4 0 9 1 13 1c155 0 256 -128 256 -261
c0 -76 -33 -154 -107 -210c-22 -17 -47 -28 -73 -36c3 -35 5 -70 5 -105c0 -19 -1 -39 -2 -58c-7 -119 -88 -225 -202 -228l1 43c93 2 153 92 159 191c1 18 2 37 2 55c0 31 -1 61 -4 92c-29 -5 -58 -8 -89 -8zM428 916c0 55 -4 79 -20 129c-99 -48 -162 -149 -162 -259
c0 -74 18 -133 36 -194c80 97 146 198 146 324z" fill="currentColor"/>
</g>
<a style="color:inherit;" xlink:href="textedit:///home/mike/code/lilypond-scripts/guitar/e-minor-pentatonic.ly:15:2:3">
<g color="rgb(100.0000%, 100.0000%, 100.0000%)">
<g transform="translate(14.4358, 19.2667)">
<rect x="0.1229" y="-0.6658" width="1.2292" height="1.3316" ry="0.0000" fill="currentColor"/>
</g>
</g>
<g transform="translate(14.5587, 19.8984)">
<text font-family="serif" font-weight="bold" font-size="1.7461" text-anchor="start" fill="currentColor">
<tspan>0</tspan>
</text>
</g>
</a>
<g transform="translate(15.6750, 4.6717)">
<rect x="-0.0650" y="-0.0000" width="0.1300" height="5.3139" ry="0.0400" fill="currentColor"/>
</g>
<g transform="translate(29.3298, 4.6717)">
<rect x="-0.0650" y="-1.0000" width="0.1300" height="3.3139" ry="0.0400" fill="currentColor"/>
</g>
<a style="color:inherit;" xlink:href="textedit:///home/mike/code/lilypond-scripts/guitar/e-minor-pentatonic.ly:10:2:3">
<g transform="translate(31.1168, 6.6717)">
<path transform="scale(0.0040, -0.0040)" d="M218 136c55 0 108 -28 108 -89c0 -71 -55 -121 -102 -149c-35 -21 -75 -34 -116 -34c-55 0 -108 28 -108 89c0 71 55 121 102 149c35 21 75 34 116 34z" fill="currentColor"/>
</g>
</a>
<a style="color:inherit;" xlink:href="textedit:///home/mike/code/lilypond-scripts/guitar/e-minor-pentatonic.ly:9:10:11">
<g transform="translate(23.7644, 8.1717)">
<path transform="scale(0.0040, -0.0040)" d="M218 136c55 0 108 -28 108 -89c0 -71 -55 -121 -102 -149c-35 -21 -75 -34 -116 -34c-55 0 -108 28 -108 89c0 71 55 121 102 149c35 21 75 34 116 34z" fill="currentColor"/>
</g>
</a>
<a style="color:inherit;" xlink:href="textedit:///home/mike/code/lilypond-scripts/guitar/e-minor-pentatonic.ly:9:11:12">
<g transform="translate(24.0238, 2.1217)">
<path transform="scale(0.0022, -0.0022)" d="M129 129h130c0 -52 32 -100 81 -100c10 0 14 -8 14 -15s-4 -14 -14 -14c-49 0 -97 14 -146 14s-96 -14 -145 -14c-10 0 -15 7 -15 14s5 15 15 15c49 0 80 48 80 100zM0 250l129 250c3 7 13 3 21 0c14 -6 28 -14 44 -14s31 8 45 14c2 1 2 1 4 1c8 0 16 -9 16 -21v-351
h-130v215c0 15 -11 23 -20 23c-5 0 -9 -2 -11 -7l-66 -127c-4 -7 -9 -9 -15 -9c-9 0 -19 7 -19 17c0 3 0 6 2 9z" fill="currentColor"/>
</g>
</a>
<a style="color:inherit;" xlink:href="textedit:///home/mike/code/lilypond-scripts/guitar/e-minor-pentatonic.ly:15:9:10">
<g color="rgb(100.0000%, 100.0000%, 100.0000%)">
<g transform="translate(23.7644, 17.7667)">
<rect x="0.1229" y="-0.6487" width="1.2292" height="1.2974" ry="0.0000" fill="currentColor"/>
</g>
</g>
<g transform="translate(23.8873, 18.4155)">
<text font-family="serif" font-weight="bold" font-size="1.7461" text-anchor="start" fill="currentColor">
<tspan>2</tspan>
</text>
</g>
</a>
<g transform="translate(25.0036, 4.6717)">
<rect x="-0.0650" y="-0.0000" width="0.1300" height="3.3139" ry="0.0400" fill="currentColor"/>
</g>
<g transform="translate(32.3560, 4.6717)">
<rect x="-0.0650" y="-1.5000" width="0.1300" height="3.3139" ry="0.0400" fill="currentColor"/>
</g>
<a style="color:inherit;" xlink:href="textedit:///home/mike/code/lilypond-scripts/guitar/e-minor-pentatonic.ly:16:2:3">
<g color="rgb(100.0000%, 100.0000%, 100.0000%)">
<g transform="translate(31.1168, 16.2667)">
<rect x="0.1229" y="-0.6487" width="1.2292" height="1.2974" ry="0.0000" fill="currentColor"/>
</g>
</g>
<g transform="translate(31.2397, 16.9155)">
<text font-family="serif" font-weight="bold" font-size="1.7461" text-anchor="start" fill="currentColor">
<tspan>2</tspan>
</text>
</g>
</a>
<a style="color:inherit;" xlink:href="textedit:///home/mike/code/lilypond-scripts/guitar/e-minor-pentatonic.ly:10:3:4">
<g transform="translate(31.3762, 2.1217)">
<path transform="scale(0.0022, -0.0022)" d="M129 129h130c0 -52 32 -100 81 -100c10 0 14 -8 14 -15s-4 -14 -14 -14c-49 0 -97 14 -146 14s-96 -14 -145 -14c-10 0 -15 7 -15 14s5 15 15 15c49 0 80 48 80 100zM0 250l129 250c3 7 13 3 21 0c14 -6 28 -14 44 -14s31 8 45 14c2 1 2 1 4 1c8 0 16 -9 16 -21v-351
h-130v215c0 15 -11 23 -20 23c-5 0 -9 -2 -11 -7l-66 -127c-4 -7 -9 -9 -15 -9c-9 0 -19 7 -19 17c0 3 0 6 2 9z" fill="currentColor"/>
</g>
</a>
<a style="color:inherit;" xlink:href="textedit:///home/mike/code/lilypond-scripts/guitar/e-minor-pentatonic.ly:9:14:15">
<g transform="translate(28.0906, 7.1717)">
<path transform="scale(0.0040, -0.0040)" d="M218 136c55 0 108 -28 108 -89c0 -71 -55 -121 -102 -149c-35 -21 -75 -34 -116 -34c-55 0 -108 28 -108 89c0 71 55 121 102 149c35 21 75 34 116 34z" fill="currentColor"/>
</g>
</a>
<a style="color:inherit;" xlink:href="textedit:///home/mike/code/lilypond-scripts/guitar/e-minor-pentatonic.ly:15:11:12">
<g color="rgb(100.0000%, 100.0000%, 100.0000%)">
<g transform="translate(28.0906, 16.2667)">
<rect x="0.1229" y="-0.6658" width="1.2292" height="1.3316" ry="0.0000" fill="currentColor"/>
</g>
</g>
<g transform="translate(28.2135, 16.8984)">
<text font-family="serif" font-weight="bold" font-size="1.7461" text-anchor="start" fill="currentColor">
<tspan>0</tspan>
</text>
</g>
</a>
</svg>
