<svg xmlns="http://www.w3.org/2000/svg" xmlns:xlink="http://www.w3.org/1999/xlink" version="1.2" width="145.58mm" height="27.85mm" viewBox="7.3635 -0.0210 82.8445 15.8500">
<style type="text/css">
<![CDATA[
tspan { white-space: pre; }
]]>
</style>
<g transform="translate(8.5358, 5.7790)">
<line stroke-linejoin="round" stroke-linecap="round" stroke-width="0.1000" stroke="currentColor" x1="0.0500" y1="0" x2="81.6722" y2="0"/>
</g>
<g transform="translate(8.5358, 4.7790)">
<line stroke-linejoin="round" stroke-linecap="round" stroke-width="0.1000" stroke="currentColor" x1="0.0500" y1="0" x2="81.6722" y2="0"/>
</g>
<g transform="translate(8.5358, 3.7790)">
<line stroke-linejoin="round" stroke-linecap="round" stroke-width="0.1000" stroke="currentColor" x1="0.0500" y1="0" x2="81.6722" y2="0"/>
</g>
<g transform="translate(8.5358, 2.7790)">
<line stroke-linejoin="round" stroke-linecap="round" stroke-width="0.1000" stroke="currentColor" x1="0.0500" y1="0" x2="81.6722" y2="0"/>
</g>
<g transform="translate(8.5358, 1.7790)">
<line stroke-linejoin="round" stroke-linecap="round" stroke-width="0.1000" stroke="currentColor" x1="0.0500" y1="0" x2="81.6722" y2="0"/>
</g>
<g transform="translate(0.0000, 6.7790)">
<rect x="86.2277" y="-0.1000" width="1.9563" height="0.2000" ry="0.1000" fill="currentColor"/>
</g>
<g transform="translate(0.0000, 7.7790)">
<rect x="86.2277" y="-0.1000" width="1.9563" height="0.2000" ry="0.1000" fill="currentColor"/>
</g>
<g transform="translate(0.0000, 6.7790)">
<rect x="83.7235" y="-0.1000" width="1.9563" height="0.2000" ry="0.1000" fill="currentColor"/>
</g>
<g transform="translate(0.0000, 7.7790)">
<rect x="83.7235" y="-0.1000" width="1.9563" height="0.2000" ry="0.1000" fill="currentColor"/>
</g>
<g transform="translate(0.0000, 6.7790)">
<rect x="81.2193" y="-0.1000" width="1.9563" height="0.2000" ry="0.1000" fill="currentColor"/>
</g>
<g transform="translate(0.0000, 6.7790)">
<rect x="78.7151" y="-0.1000" width="1.9563" height="0.2000" ry="0.1000" fill="currentColor"/>
</g>
<g transform="translate(0.0000, 6.7790)">
<rect x="23.6224" y="-0.1000" width="1.9563" height="0.2000" ry="0.1000" fill="currentColor"/>
</g>
<g transform="translate(0.0000, 6.7790)">
<rect x="21.1182" y="-0.1000" width="1.9563" height="0.2000" ry="0.1000" fill="currentColor"/>
</g>
<g transform="translate(0.0000, 6.7790)">
<rect x="18.6140" y="-0.1000" width="1.9563" height="0.2000" ry="0.1000" fill="currentColor"/>
</g>
<g transform="translate(0.0000, 7.7790)">
<rect x="18.6140" y="-0.1000" width="1.9563" height="0.2000" ry="0.1000" fill="currentColor"/>
</g>
<g transform="translate(0.0000, 6.7790)">
<rect x="16.1098" y="-0.1000" width="1.9563" height="0.2000" ry="0.1000" fill="currentColor"/>
</g>
<g transform="translate(0.0000, 7.7790)">
<rect x="16.1098" y="-0.1000" width="1.9563" height="0.2000" ry="0.1000" fill="currentColor"/>
</g>
<g transform="translate(0.0000, 9.7790)">
<rect x="61.2039" y="-0.1000" width="1.9563" height="0.2000" ry="0.1000" fill="currentColor"/>
</g>
<g transform="translate(0.0000, 9.7790)">
<rect x="58.6996" y="-0.1000" width="1.9563" height="0.2000" ry="0.1000" fill="currentColor"/>
</g>
<g transform="translate(0.0000, 8.7790)">
<rect x="56.1954" y="-0.1000" width="1.9563" height="0.2000" ry="0.1000" fill="currentColor"/>
</g>
<g transform="translate(0.0000, 9.7790)">
<rect x="56.1954" y="-0.1000" width="1.9563" height="0.2000" ry="0.1000" fill="currentColor"/>
</g>
<g transform="translate(0.0000, 8.7790)">
<rect x="53.6912" y="-0.1000" width="1.9563" height="0.2000" ry="0.1000" fill="currentColor"/>
</g>
<g transform="translate(0.0000, 9.7790)">
<rect x="53.6912" y="-0.1000" width="1.9563" height="0.2000" ry="0.1000" fill="currentColor"/>
</g>
<g transform="translate(0.0000, 7.7790)">
<rect x="51.1870" y="-0.1000" width="1.9563" height="0.2000" ry="0.1000" fill="currentColor"/>
</g>
<g transform="translate(0.0000, 8.7790)">
<rect x="51.1870" y="-0.1000" width="1.9563" height="0.2000" ry="0.1000" fill="currentColor"/>
</g>
<g transform="translate(0.0000, 9.7790)">
<rect x="51.1870" y="-0.1000" width="1.9563" height="0.2000" ry="0.1000" fill="currentColor"/>
</g>
<g transform="translate(0.0000, 8.7790)">
<rect x="48.6828" y="-0.1000" width="1.9563" height="0.2000" ry="0.1000" fill="currentColor"/>
</g>
<g transform="translate(0.0000, 9.7790)">
<rect x="48.6828" y="-0.1000" width="1.9563" height="0.2000" ry="0.1000" fill="currentColor"/>
</g>
<g transform="translate(0.0000, 8.7790)">
<rect x="46.1786" y="-0.1000" width="1.9563" height="0.2000" ry="0.1000" fill="currentColor"/>
</g>
<g transform="translate(0.0000, 9.7790)">
<rect x="46.1786" y="-0.1000" width="1.9563" height="0.2000" ry="0.1000" fill="currentColor"/>
</g>
<g transform="translate(0.0000, 9.7790)">
<rect x="43.6744" y="-0.1000" width="1.9563" height="0.2000" ry="0.1000" fill="currentColor"/>
</g>
<g transform="translate(0.0000, 9.7790)">
<rect x="41.1702" y="-0.1000" width="1.9563" height="0.2000" ry="0.1000" fill="currentColor"/>
</g>
<g transform="translate(8.5358, 14.7790)">
<line stroke-linejoin="round" stroke-linecap="round" stroke-width="0.1000" stroke="currentColor" x1="0.0500" y1="0" x2="81.6722" y2="0"/>
</g>
<g transform="translate(8.5358, 13.7790)">
<line stroke-linejoin="round" stroke-linecap="round" stroke-width="0.1000" stroke="currentColor" x1="0.0500" y1="0" x2="81.6722" y2="0"/>
</g>
<g transform="translate(8.5358, 12.7790)">
<line stroke-linejoin="round" stroke-linecap="round" stroke-width="0.1000" stroke="currentColor" x1="0.0500" y1="0" x2="81.6722" y2="0"/>
</g>
<g transform="translate(8.5358, 11.7790)">
<line stroke-linejoin="round" stroke-linecap="round" stroke-width="0.1000" stroke="currentColor" x1="0.0500" y1="0" x2="81.6722" y2="0"/>
</g>
<g transform="translate(8.5358, 10.7790)">
<line stroke-linejoin="round" stroke-linecap="round" stroke-width="0.1000" stroke="currentColor" x1="0.0500" y1="0" x2="81.6722" y2="0"/>
</g>
<g transform="translate(61.5949, 12.7790)">
<rect x="-0.0650" y="-2.8139" width="0.1300" height="2.9400" ry="0.0400" fill="currentColor"/>
</g>
<g transform="translate(64.0991, 12.7790)">
<rect x="-0.0650" y="-2.3139" width="0.1300" height="2.5023" ry="0.0400" fill="currentColor"/>
</g>
<a style="color:inherit;" xlink:href="textedit:///home/mike/code/lilypond-scripts/piano/scales/abrsm/g-major-two-octaves-hands-together.ly:29:16:17">
<g transform="translate(64.0341, 3.7790)">
<path transform="scale(0.0040, -0.0040)" d="M218 136c55 0 108 -28 108 -89c0 -71 -55 -121 -102 -149c-35 -21 -75 -34 -116 -34c-55 0 -108 28 -108 89c0 71 55 121 102 149c35 21 75 34 116 34z" fill="currentColor"/>
</g>
</a>
<a style="color:inherit;" xlink:href="textedit:///home/mike/code/lilypond-scripts/piano/scales/abrsm/g-major-two-octaves-hands-together.ly:39:16:17">
<g transform="translate(64.0341, 10.2790)">
<path transform="scale(0.0040, -0.0040)" d="M218 136c55 0 108 -28 108 -89c0 -71 -55 -121 -102 -149c-35 -21 -75 -34 -116 -34c-55 0 -108 28 -108 89c0 71 55 121 102 149c35 21 75 34 116 34z" fill="currentColor"/>
</g>
</a>
<g transform="translate(64.0991, 3.7790)">
<rect x="-0.0650" y="0.1861" width="0.1300" height="2.6170" ry="0.0400" fill="currentColor"/>
</g>
<g transform="translate(61.5949, 3.7790)">
<rect x="-0.0650" y="-0.3139" width="0.1300" height="2.8516" ry="0.0400" fill="currentColor"/>
</g>
<a style="color:inherit;" xlink:href="textedit:///home/mike/code/lilypond-scripts/piano/scales/abrsm/g-major-two-octaves-hands-together.ly:39:14:15">
<g transform="translate(61.5299, 9.7790)">
<path transform="scale(0.0040, -0.0040)" d="M218 136c55 0 108 -28 108 -89c0 -71 -55 -121 -102 -149c-35 -21 -75 -34 -116 -34c-55 0 -108 28 -108 89c0 71 55 121 102 149c35 21 75 34 116 34z" fill="currentColor"/>
</g>
</a>
<a style="color:inherit;" xlink:href="textedit:///home/mike/code/lilypond-scripts/piano/scales/abrsm/g-major-two-octaves-hands-together.ly:29:14:15">
<g transform="translate(61.5299, 3.2790)">
<path transform="scale(0.0040, -0.0040)" d="M218 136c55 0 108 -28 108 -89c0 -71 -55 -121 -102 -149c-35 -21 -75 -34 -116 -34c-55 0 -108 28 -108 89c0 71 55 121 102 149c35 21 75 34 116 34z" fill="currentColor"/>
</g>
</a>
<g transform="translate(59.0907, 12.7790)">
<rect x="-0.0650" y="-3.3139" width="0.1300" height="3.3778" ry="0.0400" fill="currentColor"/>
</g>
<a style="color:inherit;" xlink:href="textedit:///home/mike/code/lilypond-scripts/piano/scales/abrsm/g-major-two-octaves-hands-together.ly:39:4:5">
<g transform="translate(51.5131, 7.7790)">
<path transform="scale(0.0040, -0.0040)" d="M218 136c55 0 108 -28 108 -89c0 -71 -55 -121 -102 -149c-35 -21 -75 -34 -116 -34c-55 0 -108 28 -108 89c0 71 55 121 102 149c35 21 75 34 116 34z" fill="currentColor"/>
</g>
</a>
<g transform="translate(69.0984, 12.7790)">
<rect x="-0.0650" y="-1.3139" width="0.1300" height="2.8401" ry="0.0400" fill="currentColor"/>
</g>
<g transform="translate(70.2726, 3.7790)">
<rect x="-0.0650" y="-1.8538" width="0.1300" height="2.6677" ry="0.0400" fill="currentColor"/>
</g>
<a style="color:inherit;" xlink:href="textedit:///home/mike/code/lilypond-scripts/piano/scales/abrsm/g-major-two-octaves-hands-together.ly:40:4:5">
<g transform="translate(69.0334, 11.2790)">
<path transform="scale(0.0040, -0.0040)" d="M218 136c55 0 108 -28 108 -89c0 -71 -55 -121 -102 -149c-35 -21 -75 -34 -116 -34c-55 0 -108 28 -108 89c0 71 55 121 102 149c35 21 75 34 116 34z" fill="currentColor"/>
</g>
</a>
<a style="color:inherit;" xlink:href="textedit:///home/mike/code/lilypond-scripts/piano/scales/abrsm/g-major-two-octaves-hands-together.ly:30:4:5">
<g transform="translate(69.0334, 4.7790)">
<path transform="scale(0.0040, -0.0040)" d="M218 136c55 0 108 -28 108 -89c0 -71 -55 -121 -102 -149c-35 -21 -75 -34 -116 -34c-55 0 -108 28 -108 89c0 71 55 121 102 149c35 21 75 34 116 34z" fill="currentColor"/>
</g>
</a>
<g transform="translate(66.5942, 12.7790)">
<rect x="-0.0650" y="-1.8139" width="0.1300" height="3.0124" ry="0.0400" fill="currentColor"/>
</g>
<g transform="translate(67.7684, 3.7790)">
<rect x="-0.0650" y="-2.1815" width="0.1300" height="2.4954" ry="0.0400" fill="currentColor"/>
</g>
<a style="color:inherit;" xlink:href="textedit:///home/mike/code/lilypond-scripts/piano/scales/abrsm/g-major-two-octaves-hands-together.ly:39:18:19">
<g transform="translate(66.5292, 10.7790)">
<path transform="scale(0.0040, -0.0040)" d="M218 136c55 0 108 -28 108 -89c0 -71 -55 -121 -102 -149c-35 -21 -75 -34 -116 -34c-55 0 -108 28 -108 89c0 71 55 121 102 149c35 21 75 34 116 34z" fill="currentColor"/>
</g>
</a>
<a style="color:inherit;" xlink:href="textedit:///home/mike/code/lilypond-scripts/piano/scales/abrsm/g-major-two-octaves-hands-together.ly:29:18:19">
<g transform="translate(66.5292, 4.2790)">
<path transform="scale(0.0040, -0.0040)" d="M218 136c55 0 108 -28 108 -89c0 -71 -55 -121 -102 -149c-35 -21 -75 -34 -116 -34c-55 0 -108 28 -108 89c0 71 55 121 102 149c35 21 75 34 116 34z" fill="currentColor"/>
</g>
</a>
<g transform="translate(54.0823, 3.7790)">
<rect x="-0.0650" y="-1.8139" width="0.1300" height="2.6271" ry="0.0400" fill="currentColor"/>
</g>
<g transform="translate(56.5865, 3.7790)">
<rect x="-0.0650" y="-1.3139" width="0.1300" height="3.3208" ry="0.0400" fill="currentColor"/>
</g>
<a style="color:inherit;" xlink:href="textedit:///home/mike/code/lilypond-scripts/piano/scales/abrsm/g-major-two-octaves-hands-together.ly:39:10:11">
<g transform="translate(56.5215, 8.7790)">
<path transform="scale(0.0040, -0.0040)" d="M218 136c55 0 108 -28 108 -89c0 -71 -55 -121 -102 -149c-35 -21 -75 -34 -116 -34c-55 0 -108 28 -108 89c0 71 55 121 102 149c35 21 75 34 116 34z" fill="currentColor"/>
</g>
</a>
<a style="color:inherit;" xlink:href="textedit:///home/mike/code/lilypond-scripts/piano/scales/abrsm/g-major-two-octaves-hands-together.ly:29:10:11">
<g transform="translate(56.5215, 2.2790)">
<path transform="scale(0.0040, -0.0040)" d="M218 136c55 0 108 -28 108 -89c0 -71 -55 -121 -102 -149c-35 -21 -75 -34 -116 -34c-55 0 -108 28 -108 89c0 71 55 121 102 149c35 21 75 34 116 34z" fill="currentColor"/>
</g>
</a>
<g transform="translate(54.0823, 12.7790)">
<rect x="-0.0650" y="-4.3139" width="0.1300" height="4.3139" ry="0.0400" fill="currentColor"/>
</g>
<a style="color:inherit;" xlink:href="textedit:///home/mike/code/lilypond-scripts/piano/scales/abrsm/g-major-two-octaves-hands-together.ly:39:6:7">
<g transform="translate(54.0173, 8.2790)">
<path transform="scale(0.0040, -0.0040)" d="M218 136c55 0 108 -28 108 -89c0 -71 -55 -121 -102 -149c-35 -21 -75 -34 -116 -34c-55 0 -108 28 -108 89c0 71 55 121 102 149c35 21 75 34 116 34z" fill="currentColor"/>
</g>
</a>
<a style="color:inherit;" xlink:href="textedit:///home/mike/code/lilypond-scripts/piano/scales/abrsm/g-major-two-octaves-hands-together.ly:29:6:7">
<g transform="translate(54.0173, 1.7790)">
<path transform="scale(0.0040, -0.0040)" d="M218 136c55 0 108 -28 108 -89c0 -71 -55 -121 -102 -149c-35 -21 -75 -34 -116 -34c-55 0 -108 28 -108 89c0 71 55 121 102 149c35 21 75 34 116 34z" fill="currentColor"/>
</g>
</a>
<g transform="translate(51.5781, 12.7790)">
<rect x="-0.0650" y="-4.8139" width="0.1300" height="4.8139" ry="0.0400" fill="currentColor"/>
</g>
<g transform="translate(51.5781, 3.7790)">
<rect x="-0.0650" y="-2.3139" width="0.1300" height="3.2516" ry="0.0400" fill="currentColor"/>
</g>
<g transform="translate(17.6100, 3.7790)">
<polygon stroke-linejoin="round" stroke-linecap="round" stroke-width="0.0800" fill="currentColor" stroke="currentColor" points="7.6026 -0.3900 7.6026 0.0100 0.0400 0.2000 0.0400 -0.2000"/>
</g>
<g transform="translate(59.0907, 3.7790)">
<rect x="-0.0650" y="-0.8139" width="0.1300" height="3.0862" ry="0.0400" fill="currentColor"/>
</g>
<a style="color:inherit;" xlink:href="textedit:///home/mike/code/lilypond-scripts/piano/scales/abrsm/g-major-two-octaves-hands-together.ly:39:12:13">
<g transform="translate(59.0257, 9.2790)">
<path transform="scale(0.0040, -0.0040)" d="M218 136c55 0 108 -28 108 -89c0 -71 -55 -121 -102 -149c-35 -21 -75 -34 -116 -34c-55 0 -108 28 -108 89c0 71 55 121 102 149c35 21 75 34 116 34z" fill="currentColor"/>
</g>
</a>
<a style="color:inherit;" xlink:href="textedit:///home/mike/code/lilypond-scripts/piano/scales/abrsm/g-major-two-octaves-hands-together.ly:29:12:13">
<g transform="translate(59.0257, 2.7790)">
<path transform="scale(0.0040, -0.0040)" d="M218 136c55 0 108 -28 108 -89c0 -71 -55 -121 -102 -149c-35 -21 -75 -34 -116 -34c-55 0 -108 28 -108 89c0 71 55 121 102 149c35 21 75 34 116 34z" fill="currentColor"/>
</g>
</a>
<g transform="translate(56.5865, 12.7790)">
<rect x="-0.0650" y="-3.8139" width="0.1300" height="3.8155" ry="0.0400" fill="currentColor"/>
</g>
<g transform="translate(85.2888, 3.7790)">
<rect x="-0.0650" y="-0.0016" width="0.1300" height="3.8155" ry="0.0400" fill="currentColor"/>
</g>
<a style="color:inherit;" xlink:href="textedit:///home/mike/code/lilypond-scripts/piano/scales/abrsm/g-major-two-octaves-hands-together.ly:40:18:19">
<g transform="translate(84.0496, 14.2790)">
<path transform="scale(0.0040, -0.0040)" d="M218 136c55 0 108 -28 108 -89c0 -71 -55 -121 -102 -149c-35 -21 -75 -34 -116 -34c-55 0 -108 28 -108 89c0 71 55 121 102 149c35 21 75 34 116 34z" fill="currentColor"/>
</g>
</a>
<a style="color:inherit;" xlink:href="textedit:///home/mike/code/lilypond-scripts/piano/scales/abrsm/g-major-two-octaves-hands-together.ly:30:18:19">
<g transform="translate(84.0496, 7.7790)">
<path transform="scale(0.0040, -0.0040)" d="M218 136c55 0 108 -28 108 -89c0 -71 -55 -121 -102 -149c-35 -21 -75 -34 -116 -34c-55 0 -108 28 -108 89c0 71 55 121 102 149c35 21 75 34 116 34z" fill="currentColor"/>
</g>
</a>
<g transform="translate(82.7846, 12.7790)">
<rect x="-0.0650" y="-2.2723" width="0.1300" height="3.0862" ry="0.0400" fill="currentColor"/>
</g>
<g transform="translate(85.2888, 12.7790)">
<rect x="-0.0650" y="-2.0069" width="0.1300" height="3.3208" ry="0.0400" fill="currentColor"/>
</g>
<g transform="translate(82.7846, 3.7790)">
<rect x="-0.0650" y="-0.0639" width="0.1300" height="3.3778" ry="0.0400" fill="currentColor"/>
</g>
<a style="color:inherit;" xlink:href="textedit:///home/mike/code/lilypond-scripts/piano/scales/abrsm/g-major-two-octaves-hands-together.ly:40:16:17">
<g transform="translate(81.5453, 13.7790)">
<path transform="scale(0.0040, -0.0040)" d="M218 136c55 0 108 -28 108 -89c0 -71 -55 -121 -102 -149c-35 -21 -75 -34 -116 -34c-55 0 -108 28 -108 89c0 71 55 121 102 149c35 21 75 34 116 34z" fill="currentColor"/>
</g>
</a>
<a style="color:inherit;" xlink:href="textedit:///home/mike/code/lilypond-scripts/piano/scales/abrsm/g-major-two-octaves-hands-together.ly:30:16:17">
<g transform="translate(81.5453, 7.2790)">
<path transform="scale(0.0040, -0.0040)" d="M218 136c55 0 108 -28 108 -89c0 -71 -55 -121 -102 -149c-35 -21 -75 -34 -116 -34c-55 0 -108 28 -108 89c0 71 55 121 102 149c35 21 75 34 116 34z" fill="currentColor"/>
</g>
</a>
<g transform="translate(80.2803, 12.7790)">
<rect x="-0.0650" y="-2.5377" width="0.1300" height="2.8516" ry="0.0400" fill="currentColor"/>
</g>
<g transform="translate(17.6100, 11.5890)">
<polygon stroke-linejoin="round" stroke-linecap="round" stroke-width="0.0800" fill="currentColor" stroke="currentColor" points="7.6026 -1.2000 7.6026 -0.8000 0.0400 0.2000 0.0400 -0.2000"/>
</g>
<g transform="translate(27.6360, 2.7790)">
<polygon stroke-linejoin="round" stroke-linecap="round" stroke-width="0.0800" fill="currentColor" stroke="currentColor" points="7.6026 -1.0100 7.6026 -0.6100 0.0400 0.2000 0.0400 -0.2000"/>
</g>
<g transform="translate(26.4618, 15.5890)">
<polygon stroke-linejoin="round" stroke-linecap="round" stroke-width="0.0800" fill="currentColor" stroke="currentColor" points="7.6026 -1.0100 7.6026 -0.6100 0.0400 0.2000 0.0400 -0.2000"/>
</g>
<g transform="translate(36.4878, 6.7790)">
<polygon stroke-linejoin="round" stroke-linecap="round" stroke-width="0.0800" fill="currentColor" stroke="currentColor" points="7.6026 -1.0100 7.6026 -0.6100 0.0400 0.2000 0.0400 -0.2000"/>
</g>
<g transform="translate(36.4878, 13.5890)">
<polygon stroke-linejoin="round" stroke-linecap="round" stroke-width="0.0800" fill="currentColor" stroke="currentColor" points="7.6026 -0.8200 7.6026 -0.4200 0.0400 0.2000 0.0400 -0.2000"/>
</g>
<g transform="translate(46.5046, 4.9690)">
<polygon stroke-linejoin="round" stroke-linecap="round" stroke-width="0.0800" fill="currentColor" stroke="currentColor" points="7.6026 -0.5800 7.6026 -0.1800 0.0400 0.2000 0.0400 -0.2000"/>
</g>
<g transform="translate(46.5046, 12.7790)">
<polygon stroke-linejoin="round" stroke-linecap="round" stroke-width="0.0800" fill="currentColor" stroke="currentColor" points="7.6026 -0.2000 7.6026 0.2000 0.0400 0.2000 0.0400 -0.2000"/>
</g>
<g transform="translate(56.5215, 5.7790)">
<polygon stroke-linejoin="round" stroke-linecap="round" stroke-width="0.0800" fill="currentColor" stroke="currentColor" points="7.6026 0.6100 7.6026 1.0100 0.0400 0.2000 0.0400 -0.2000"/>
</g>
<g transform="translate(56.5215, 12.7790)">
<polygon stroke-linejoin="round" stroke-linecap="round" stroke-width="0.0800" fill="currentColor" stroke="currentColor" points="7.6026 -0.0100 7.6026 0.3900 0.0400 0.2000 0.0400 -0.2000"/>
</g>
<g transform="translate(67.7034, 1.5890)">
<polygon stroke-linejoin="round" stroke-linecap="round" stroke-width="0.0800" fill="currentColor" stroke="currentColor" points="7.6026 0.8000 7.6026 1.2000 0.0400 0.2000 0.0400 -0.2000"/>
</g>
<g transform="translate(66.5292, 13.9690)">
<polygon stroke-linejoin="round" stroke-linecap="round" stroke-width="0.0800" fill="currentColor" stroke="currentColor" points="7.6026 0.8000 7.6026 1.2000 0.0400 0.2000 0.0400 -0.2000"/>
</g>
<g transform="translate(77.7111, 3.5890)">
<polygon stroke-linejoin="round" stroke-linecap="round" stroke-width="0.0800" fill="currentColor" stroke="currentColor" points="7.6026 -0.0100 7.6026 0.3900 0.0400 0.2000 0.0400 -0.2000"/>
</g>
<g transform="translate(77.7111, 9.9690)">
<polygon stroke-linejoin="round" stroke-linecap="round" stroke-width="0.0800" fill="currentColor" stroke="currentColor" points="7.6026 0.6100 7.6026 1.0100 0.0400 0.2000 0.0400 -0.2000"/>
</g>
<g transform="translate(87.7930, 12.7790)">
<rect x="-0.0650" y="-1.5000" width="0.1300" height="3.3139" ry="0.0400" fill="currentColor"/>
</g>
<g transform="translate(87.7930, 3.7790)">
<rect x="-0.0650" y="-0.0000" width="0.1300" height="4.3139" ry="0.0400" fill="currentColor"/>
</g>
<a style="color:inherit;" xlink:href="textedit:///home/mike/code/lilypond-scripts/piano/scales/abrsm/g-major-two-octaves-hands-together.ly:41:4:5">
<g transform="translate(86.5538, 14.7790)">
<path transform="scale(0.0040, -0.0040)" d="M218 136c55 0 108 -28 108 -89c0 -71 -55 -121 -102 -149c-35 -21 -75 -34 -116 -34c-55 0 -108 28 -108 89c0 71 55 121 102 149c35 21 75 34 116 34z" fill="currentColor"/>
</g>
</a>
<a style="color:inherit;" xlink:href="textedit:///home/mike/code/lilypond-scripts/piano/scales/abrsm/g-major-two-octaves-hands-together.ly:31:4:5">
<g transform="translate(86.5538, 8.2790)">
<path transform="scale(0.0040, -0.0040)" d="M218 136c55 0 108 -28 108 -89c0 -71 -55 -121 -102 -149c-35 -21 -75 -34 -116 -34c-55 0 -108 28 -108 89c0 71 55 121 102 149c35 21 75 34 116 34z" fill="currentColor"/>
</g>
</a>
<g transform="translate(75.2810, 3.7790)">
<rect x="-0.0650" y="-1.1985" width="0.1300" height="3.0124" ry="0.0400" fill="currentColor"/>
</g>
<g transform="translate(77.7761, 3.7790)">
<rect x="-0.0650" y="-0.1884" width="0.1300" height="2.5023" ry="0.0400" fill="currentColor"/>
</g>
<a style="color:inherit;" xlink:href="textedit:///home/mike/code/lilypond-scripts/piano/scales/abrsm/g-major-two-octaves-hands-together.ly:40:12:13">
<g transform="translate(76.5369, 12.7790)">
<path transform="scale(0.0040, -0.0040)" d="M218 136c55 0 108 -28 108 -89c0 -71 -55 -121 -102 -149c-35 -21 -75 -34 -116 -34c-55 0 -108 28 -108 89c0 71 55 121 102 149c35 21 75 34 116 34z" fill="currentColor"/>
</g>
</a>
<a style="color:inherit;" xlink:href="textedit:///home/mike/code/lilypond-scripts/piano/scales/abrsm/g-major-two-octaves-hands-together.ly:30:12:13">
<g transform="translate(76.5369, 6.2790)">
<path transform="scale(0.0040, -0.0040)" d="M218 136c55 0 108 -28 108 -89c0 -71 -55 -121 -102 -149c-35 -21 -75 -34 -116 -34c-55 0 -108 28 -108 89c0 71 55 121 102 149c35 21 75 34 116 34z" fill="currentColor"/>
</g>
</a>
<g transform="translate(74.1068, 12.7790)">
<rect x="-0.0650" y="-0.3139" width="0.1300" height="2.4954" ry="0.0400" fill="currentColor"/>
</g>
<a style="color:inherit;" xlink:href="textedit:///home/mike/code/lilypond-scripts/piano/scales/abrsm/g-major-two-octaves-hands-together.ly:40:10:11">
<g transform="translate(74.0418, 12.2790)">
<path transform="scale(0.0040, -0.0040)" d="M218 136c55 0 108 -28 108 -89c0 -71 -55 -121 -102 -149c-35 -21 -75 -34 -116 -34c-55 0 -108 28 -108 89c0 71 55 121 102 149c35 21 75 34 116 34z" fill="currentColor"/>
</g>
</a>
<a style="color:inherit;" xlink:href="textedit:///home/mike/code/lilypond-scripts/piano/scales/abrsm/g-major-two-octaves-hands-together.ly:30:10:11">
<g transform="translate(74.0418, 5.7790)">
<path transform="scale(0.0040, -0.0040)" d="M218 136c55 0 108 -28 108 -89c0 -71 -55 -121 -102 -149c-35 -21 -75 -34 -116 -34c-55 0 -108 28 -108 89c0 71 55 121 102 149c35 21 75 34 116 34z" fill="currentColor"/>
</g>
</a>
<g transform="translate(71.6026, 12.7790)">
<rect x="-0.0650" y="-0.8139" width="0.1300" height="2.6677" ry="0.0400" fill="currentColor"/>
</g>
<g transform="translate(72.7768, 3.7790)">
<rect x="-0.0650" y="-1.5262" width="0.1300" height="2.8401" ry="0.0400" fill="currentColor"/>
</g>
<a style="color:inherit;" xlink:href="textedit:///home/mike/code/lilypond-scripts/piano/scales/abrsm/g-major-two-octaves-hands-together.ly:40:6:7">
<g transform="translate(71.5376, 11.7790)">
<path transform="scale(0.0040, -0.0040)" d="M218 136c55 0 108 -28 108 -89c0 -71 -55 -121 -102 -149c-35 -21 -75 -34 -116 -34c-55 0 -108 28 -108 89c0 71 55 121 102 149c35 21 75 34 116 34z" fill="currentColor"/>
</g>
</a>
<g transform="translate(80.2803, 3.7790)">
<rect x="-0.0650" y="-0.1261" width="0.1300" height="2.9400" ry="0.0400" fill="currentColor"/>
</g>
<a style="color:inherit;" xlink:href="textedit:///home/mike/code/lilypond-scripts/piano/scales/abrsm/g-major-two-octaves-hands-together.ly:40:14:15">
<g transform="translate(79.0411, 13.2790)">
<path transform="scale(0.0040, -0.0040)" d="M218 136c55 0 108 -28 108 -89c0 -71 -55 -121 -102 -149c-35 -21 -75 -34 -116 -34c-55 0 -108 28 -108 89c0 71 55 121 102 149c35 21 75 34 116 34z" fill="currentColor"/>
</g>
</a>
<a style="color:inherit;" xlink:href="textedit:///home/mike/code/lilypond-scripts/piano/scales/abrsm/g-major-two-octaves-hands-together.ly:30:14:15">
<g transform="translate(79.0411, 6.7790)">
<path transform="scale(0.0040, -0.0040)" d="M218 136c55 0 108 -28 108 -89c0 -71 -55 -121 -102 -149c-35 -21 -75 -34 -116 -34c-55 0 -108 28 -108 89c0 71 55 121 102 149c35 21 75 34 116 34z" fill="currentColor"/>
</g>
</a>
<a style="color:inherit;" xlink:href="textedit:///home/mike/code/lilypond-scripts/piano/scales/abrsm/g-major-two-octaves-hands-together.ly:30:6:7">
<g transform="translate(71.5376, 5.2790)">
<path transform="scale(0.0040, -0.0040)" d="M218 136c55 0 108 -28 108 -89c0 -71 -55 -121 -102 -149c-35 -21 -75 -34 -116 -34c-55 0 -108 28 -108 89c0 71 55 121 102 149c35 21 75 34 116 34z" fill="currentColor"/>
</g>
</a>
<g transform="translate(77.7761, 12.7790)">
<rect x="-0.0650" y="-2.8031" width="0.1300" height="2.6170" ry="0.0400" fill="currentColor"/>
</g>
<g transform="translate(29.0310, 12.7790)">
<rect x="-0.0650" y="-0.3139" width="0.1300" height="2.8516" ry="0.0400" fill="currentColor"/>
</g>
<g transform="translate(30.2052, 3.7790)">
<rect x="-0.0650" y="-1.2723" width="0.1300" height="3.0862" ry="0.0400" fill="currentColor"/>
</g>
<a style="color:inherit;" xlink:href="textedit:///home/mike/code/lilypond-scripts/piano/scales/abrsm/g-major-two-octaves-hands-together.ly:37:16:17">
<g transform="translate(28.9660, 12.2790)">
<path transform="scale(0.0040, -0.0040)" d="M218 136c55 0 108 -28 108 -89c0 -71 -55 -121 -102 -149c-35 -21 -75 -34 -116 -34c-55 0 -108 28 -108 89c0 71 55 121 102 149c35 21 75 34 116 34z" fill="currentColor"/>
</g>
</a>
<a style="color:inherit;" xlink:href="textedit:///home/mike/code/lilypond-scripts/piano/scales/abrsm/g-major-two-octaves-hands-together.ly:27:15:16">
<g transform="translate(28.9660, 5.7790)">
<path transform="scale(0.0040, -0.0040)" d="M218 136c55 0 108 -28 108 -89c0 -71 -55 -121 -102 -149c-35 -21 -75 -34 -116 -34c-55 0 -108 28 -108 89c0 71 55 121 102 149c35 21 75 34 116 34z" fill="currentColor"/>
</g>
</a>
<g transform="translate(17.6750, 3.7790)">
<rect x="-0.0650" y="-0.0016" width="0.1300" height="4.3155" ry="0.0400" fill="currentColor"/>
</g>
<g transform="translate(26.5268, 12.7790)">
<rect x="-0.0650" y="0.1861" width="0.1300" height="2.6170" ry="0.0400" fill="currentColor"/>
</g>
<g transform="translate(27.7010, 3.7790)">
<rect x="-0.0650" y="-1.0069" width="0.1300" height="3.3208" ry="0.0400" fill="currentColor"/>
</g>
<a style="color:inherit;" xlink:href="textedit:///home/mike/code/lilypond-scripts/piano/scales/abrsm/g-major-two-octaves-hands-together.ly:37:14:15">
<g transform="translate(26.4618, 12.7790)">
<path transform="scale(0.0040, -0.0040)" d="M218 136c55 0 108 -28 108 -89c0 -71 -55 -121 -102 -149c-35 -21 -75 -34 -116 -34c-55 0 -108 28 -108 89c0 71 55 121 102 149c35 21 75 34 116 34z" fill="currentColor"/>
</g>
</a>
<a style="color:inherit;" xlink:href="textedit:///home/mike/code/lilypond-scripts/piano/scales/abrsm/g-major-two-octaves-hands-together.ly:37:4:5">
<g transform="translate(16.4358, 14.7790)">
<path transform="scale(0.0040, -0.0040)" d="M218 136c55 0 108 -28 108 -89c0 -71 -55 -121 -102 -149c-35 -21 -75 -34 -116 -34c-55 0 -108 28 -108 89c0 71 55 121 102 149c35 21 75 34 116 34z" fill="currentColor"/>
</g>
</a>
<g transform="translate(34.0394, 12.7790)">
<rect x="-0.0650" y="-1.3139" width="0.1300" height="3.3208" ry="0.0400" fill="currentColor"/>
</g>
<g transform="translate(35.2137, 3.7790)">
<rect x="-0.0650" y="-1.8031" width="0.1300" height="2.6170" ry="0.0400" fill="currentColor"/>
</g>
<a style="color:inherit;" xlink:href="textedit:///home/mike/code/lilypond-scripts/piano/scales/abrsm/g-major-two-octaves-hands-together.ly:38:4:5">
<g transform="translate(33.9744, 11.2790)">
<path transform="scale(0.0040, -0.0040)" d="M218 136c55 0 108 -28 108 -89c0 -71 -55 -121 -102 -149c-35 -21 -75 -34 -116 -34c-55 0 -108 28 -108 89c0 71 55 121 102 149c35 21 75 34 116 34z" fill="currentColor"/>
</g>
</a>
<a style="color:inherit;" xlink:href="textedit:///home/mike/code/lilypond-scripts/piano/scales/abrsm/g-major-two-octaves-hands-together.ly:28:4:5">
<g transform="translate(33.9744, 4.7790)">
<path transform="scale(0.0040, -0.0040)" d="M218 136c55 0 108 -28 108 -89c0 -71 -55 -121 -102 -149c-35 -21 -75 -34 -116 -34c-55 0 -108 28 -108 89c0 71 55 121 102 149c35 21 75 34 116 34z" fill="currentColor"/>
</g>
</a>
<g transform="translate(9.3358, 11.7790)">
<path transform="scale(0.0040, -0.0040)" d="M557 -125c0 28 23 51 51 51s51 -23 51 -51s-23 -51 -51 -51s-51 23 -51 51zM557 125c0 28 23 51 51 51s51 -23 51 -51s-23 -51 -51 -51s-51 23 -51 51zM232 263c172 0 293 -88 293 -251c0 -263 -263 -414 -516 -521c-3 -3 -6 -4 -9 -4c-7 0 -13 6 -13 13c0 3 1 6 4 9
c202 118 412 265 412 493c0 120 -63 235 -171 235c-74 0 -129 -54 -154 -126c11 5 22 8 34 8c55 0 100 -45 100 -100c0 -58 -44 -106 -100 -106c-60 0 -112 47 -112 106c0 133 102 244 232 244z" fill="currentColor"/>
</g>
<a style="color:inherit;" xlink:href="textedit:///home/mike/code/lilypond-scripts/piano/scales/abrsm/g-major-two-octaves-hands-together.ly:27:13:14">
<g transform="translate(26.4618, 6.2790)">
<path transform="scale(0.0040, -0.0040)" d="M218 136c55 0 108 -28 108 -89c0 -71 -55 -121 -102 -149c-35 -21 -75 -34 -116 -34c-55 0 -108 28 -108 89c0 71 55 121 102 149c35 21 75 34 116 34z" fill="currentColor"/>
</g>
</a>
<a style="color:inherit;" xlink:href="textedit:///home/mike/code/lilypond-scripts/piano/scales/abrsm/g-major-two-octaves-hands-together.ly:29:4:5">
<g transform="translate(51.5131, 1.2790)">
<path transform="scale(0.0040, -0.0040)" d="M218 136c55 0 108 -28 108 -89c0 -71 -55 -121 -102 -149c-35 -21 -75 -34 -116 -34c-55 0 -108 28 -108 89c0 71 55 121 102 149c35 21 75 34 116 34z" fill="currentColor"/>
</g>
</a>
<g transform="translate(31.5352, 12.7790)">
<rect x="-0.0650" y="-0.8139" width="0.1300" height="3.0862" ry="0.0400" fill="currentColor"/>
</g>
<g transform="translate(32.7094, 3.7790)">
<rect x="-0.0650" y="-1.5377" width="0.1300" height="2.8516" ry="0.0400" fill="currentColor"/>
</g>
<a style="color:inherit;" xlink:href="textedit:///home/mike/code/lilypond-scripts/piano/scales/abrsm/g-major-two-octaves-hands-together.ly:37:18:19">
<g transform="translate(31.4702, 11.7790)">
<path transform="scale(0.0040, -0.0040)" d="M218 136c55 0 108 -28 108 -89c0 -71 -55 -121 -102 -149c-35 -21 -75 -34 -116 -34c-55 0 -108 28 -108 89c0 71 55 121 102 149c35 21 75 34 116 34z" fill="currentColor"/>
</g>
</a>
<a style="color:inherit;" xlink:href="textedit:///home/mike/code/lilypond-scripts/piano/scales/abrsm/g-major-two-octaves-hands-together.ly:27:17:18">
<g transform="translate(31.4702, 5.2790)">
<path transform="scale(0.0040, -0.0040)" d="M218 136c55 0 108 -28 108 -89c0 -71 -55 -121 -102 -149c-35 -21 -75 -34 -116 -34c-55 0 -108 28 -108 89c0 71 55 121 102 149c35 21 75 34 116 34z" fill="currentColor"/>
</g>
</a>
<a style="color:inherit;" xlink:href="textedit:///home/mike/code/lilypond-scripts/piano/scales/abrsm/g-major-two-octaves-hands-together.ly:18:4:5">
<g transform="translate(12.8358, 11.7790)">
<path transform="scale(0.0040, -0.0040)" d="M216 -312c0 -10 -8 -19 -18 -19s-19 9 -19 19v145l-83 -31v-158c0 -10 -9 -19 -19 -19s-18 9 -18 19v145l-32 -12c-2 -1 -5 -1 -7 -1c-11 0 -20 9 -20 20v60c0 8 5 16 13 19l46 16v160l-32 -11c-2 -1 -5 -1 -7 -1c-11 0 -20 9 -20 20v60c0 8 5 15 13 18l46 17v158
c0 10 8 19 18 19s19 -9 19 -19v-145l83 31v158c0 10 9 19 19 19s18 -9 18 -19v-145l32 12c2 1 5 1 7 1c11 0 20 -9 20 -20v-60c0 -8 -5 -16 -13 -19l-46 -16v-160l32 11c2 1 5 1 7 1c11 0 20 -9 20 -20v-60c0 -8 -5 -15 -13 -18l-46 -17v-158zM96 65v-160l83 30v160z" fill="currentColor"/>
</g>
</a>
<a style="color:inherit;" xlink:href="textedit:///home/mike/code/lilypond-scripts/piano/scales/abrsm/g-major-two-octaves-hands-together.ly:37:8:9">
<g transform="translate(18.9400, 14.2790)">
<path transform="scale(0.0040, -0.0040)" d="M218 136c55 0 108 -28 108 -89c0 -71 -55 -121 -102 -149c-35 -21 -75 -34 -116 -34c-55 0 -108 28 -108 89c0 71 55 121 102 149c35 21 75 34 116 34z" fill="currentColor"/>
</g>
</a>
<a style="color:inherit;" xlink:href="textedit:///home/mike/code/lilypond-scripts/piano/scales/abrsm/g-major-two-octaves-hands-together.ly:27:9:10">
<g transform="translate(21.4443, 7.2790)">
<path transform="scale(0.0040, -0.0040)" d="M218 136c55 0 108 -28 108 -89c0 -71 -55 -121 -102 -149c-35 -21 -75 -34 -116 -34c-55 0 -108 28 -108 89c0 71 55 121 102 149c35 21 75 34 116 34z" fill="currentColor"/>
</g>
</a>
<g transform="translate(17.6750, 12.7790)">
<rect x="-0.0650" y="-1.1985" width="0.1300" height="3.0124" ry="0.0400" fill="currentColor"/>
</g>
<g transform="translate(20.1793, 12.7790)">
<rect x="-0.0650" y="-1.5262" width="0.1300" height="2.8401" ry="0.0400" fill="currentColor"/>
</g>
<g transform="translate(20.1793, 3.7790)">
<rect x="-0.0650" y="-0.0639" width="0.1300" height="3.8778" ry="0.0400" fill="currentColor"/>
</g>
<a style="color:inherit;" xlink:href="textedit:///home/mike/code/lilypond-scripts/piano/scales/abrsm/g-major-two-octaves-hands-together.ly:37:10:11">
<g transform="translate(21.4443, 13.7790)">
<path transform="scale(0.0040, -0.0040)" d="M218 136c55 0 108 -28 108 -89c0 -71 -55 -121 -102 -149c-35 -21 -75 -34 -116 -34c-55 0 -108 28 -108 89c0 71 55 121 102 149c35 21 75 34 116 34z" fill="currentColor"/>
</g>
</a>
<a style="color:inherit;" xlink:href="textedit:///home/mike/code/lilypond-scripts/piano/scales/abrsm/g-major-two-octaves-hands-together.ly:27:7:8">
<g transform="translate(18.9400, 7.7790)">
<path transform="scale(0.0040, -0.0040)" d="M218 136c55 0 108 -28 108 -89c0 -71 -55 -121 -102 -149c-35 -21 -75 -34 -116 -34c-55 0 -108 28 -108 89c0 71 55 121 102 149c35 21 75 34 116 34z" fill="currentColor"/>
</g>
</a>
<a style="color:inherit;" xlink:href="textedit:///home/mike/code/lilypond-scripts/piano/scales/abrsm/g-major-two-octaves-hands-together.ly:27:11:12">
<g transform="translate(23.9485, 6.7790)">
<path transform="scale(0.0040, -0.0040)" d="M218 136c55 0 108 -28 108 -89c0 -71 -55 -121 -102 -149c-35 -21 -75 -34 -116 -34c-55 0 -108 28 -108 89c0 71 55 121 102 149c35 21 75 34 116 34z" fill="currentColor"/>
</g>
</a>
<g transform="translate(25.1877, 12.7790)">
<rect x="-0.0650" y="-2.1815" width="0.1300" height="2.4954" ry="0.0400" fill="currentColor"/>
</g>
<g transform="translate(25.1877, 3.7790)">
<rect x="-0.0650" y="-0.1884" width="0.1300" height="3.0023" ry="0.0400" fill="currentColor"/>
</g>
<a style="color:inherit;" xlink:href="textedit:///home/mike/code/lilypond-scripts/piano/scales/abrsm/g-major-two-octaves-hands-together.ly:37:12:13">
<g transform="translate(23.9485, 13.2790)">
<path transform="scale(0.0040, -0.0040)" d="M218 136c55 0 108 -28 108 -89c0 -71 -55 -121 -102 -149c-35 -21 -75 -34 -116 -34c-55 0 -108 28 -108 89c0 71 55 121 102 149c35 21 75 34 116 34z" fill="currentColor"/>
</g>
</a>
<g transform="translate(22.6835, 12.7790)">
<rect x="-0.0650" y="-1.8538" width="0.1300" height="2.6677" ry="0.0400" fill="currentColor"/>
</g>
<g transform="translate(22.6835, 3.7790)">
<rect x="-0.0650" y="-0.1261" width="0.1300" height="3.4400" ry="0.0400" fill="currentColor"/>
</g>
<g transform="translate(44.0654, 3.7790)">
<rect x="-0.0650" y="-0.8139" width="0.1300" height="3.0108" ry="0.0400" fill="currentColor"/>
</g>
<g transform="translate(46.5696, 3.7790)">
<rect x="-0.0650" y="-1.3139" width="0.1300" height="2.5007" ry="0.0400" fill="currentColor"/>
</g>
<a style="color:inherit;" xlink:href="textedit:///home/mike/code/lilypond-scripts/piano/scales/abrsm/g-major-two-octaves-hands-together.ly:38:14:15">
<g transform="translate(46.5046, 8.7790)">
<path transform="scale(0.0040, -0.0040)" d="M218 136c55 0 108 -28 108 -89c0 -71 -55 -121 -102 -149c-35 -21 -75 -34 -116 -34c-55 0 -108 28 -108 89c0 71 55 121 102 149c35 21 75 34 116 34z" fill="currentColor"/>
</g>
</a>
<a style="color:inherit;" xlink:href="textedit:///home/mike/code/lilypond-scripts/piano/scales/abrsm/g-major-two-octaves-hands-together.ly:28:14:15">
<g transform="translate(46.5046, 2.2790)">
<path transform="scale(0.0040, -0.0040)" d="M218 136c55 0 108 -28 108 -89c0 -71 -55 -121 -102 -149c-35 -21 -75 -34 -116 -34c-55 0 -108 28 -108 89c0 71 55 121 102 149c35 21 75 34 116 34z" fill="currentColor"/>
</g>
</a>
<g transform="translate(8.4758, 8.2790)">
<rect x="0.0000" y="-6.5500" width="0.1600" height="13.1000" ry="0.0500" fill="currentColor"/>
</g>
<g transform="translate(44.0654, 12.7790)">
<rect x="-0.0650" y="-3.3139" width="0.1300" height="3.5092" ry="0.0400" fill="currentColor"/>
</g>
<a style="color:inherit;" xlink:href="textedit:///home/mike/code/lilypond-scripts/piano/scales/abrsm/g-major-two-octaves-hands-together.ly:38:12:13">
<g transform="translate(44.0004, 9.2790)">
<path transform="scale(0.0040, -0.0040)" d="M218 136c55 0 108 -28 108 -89c0 -71 -55 -121 -102 -149c-35 -21 -75 -34 -116 -34c-55 0 -108 28 -108 89c0 71 55 121 102 149c35 21 75 34 116 34z" fill="currentColor"/>
</g>
</a>
<a style="color:inherit;" xlink:href="textedit:///home/mike/code/lilypond-scripts/piano/scales/abrsm/g-major-two-octaves-hands-together.ly:28:12:13">
<g transform="translate(44.0004, 2.7790)">
<path transform="scale(0.0040, -0.0040)" d="M218 136c55 0 108 -28 108 -89c0 -71 -55 -121 -102 -149c-35 -21 -75 -34 -116 -34c-55 0 -108 28 -108 89c0 71 55 121 102 149c35 21 75 34 116 34z" fill="currentColor"/>
</g>
</a>
<g transform="translate(41.5612, 12.7790)">
<rect x="-0.0650" y="-2.8139" width="0.1300" height="3.2123" ry="0.0400" fill="currentColor"/>
</g>
<a style="color:inherit;" xlink:href="textedit:///home/mike/code/lilypond-scripts/piano/scales/abrsm/g-major-two-octaves-hands-together.ly:38:16:17">
<g transform="translate(49.0088, 8.2790)">
<path transform="scale(0.0040, -0.0040)" d="M218 136c55 0 108 -28 108 -89c0 -71 -55 -121 -102 -149c-35 -21 -75 -34 -116 -34c-55 0 -108 28 -108 89c0 71 55 121 102 149c35 21 75 34 116 34z" fill="currentColor"/>
</g>
</a>
<g transform="translate(49.0738, 12.7790)">
<rect x="-0.0650" y="-4.3139" width="0.1300" height="4.3139" ry="0.0400" fill="currentColor"/>
</g>
<g transform="translate(49.0738, 3.7790)">
<rect x="-0.0650" y="-1.8139" width="0.1300" height="2.8762" ry="0.0400" fill="currentColor"/>
</g>
<g transform="translate(41.5612, 3.7790)">
<rect x="-0.0650" y="-0.3139" width="0.1300" height="2.7762" ry="0.0400" fill="currentColor"/>
</g>
<a style="color:inherit;" xlink:href="textedit:///home/mike/code/lilypond-scripts/piano/scales/abrsm/g-major-two-octaves-hands-together.ly:28:16:17">
<g transform="translate(49.0088, 1.7790)">
<path transform="scale(0.0040, -0.0040)" d="M218 136c55 0 108 -28 108 -89c0 -71 -55 -121 -102 -149c-35 -21 -75 -34 -116 -34c-55 0 -108 28 -108 89c0 71 55 121 102 149c35 21 75 34 116 34z" fill="currentColor"/>
</g>
</a>
<g transform="translate(8.1758, 8.2790)">
<path transform="scale(0.0040, -0.0040)" d="M-189 -1146c0 267 108 528 108 780c0 135 -33 261 -129 360c-3 3 -3 3 -3 6s0 3 3 6c96 99 129 225 129 360c0 252 -108 513 -108 780c0 189 45 366 177 501c15 15 39 -9 24 -24c-99 -99 -129 -225 -129 -360c0 -249 102 -504 102 -765c0 -186 -45 -363 -174 -498
c129 -135 174 -312 174 -498c0 -261 -102 -516 -102 -765c0 -135 30 -261 129 -360c15 -15 -9 -39 -24 -24c-132 135 -177 312 -177 501z" fill="currentColor"/>
</g>
<g transform="translate(46.5696, 12.7790)">
<rect x="-0.0650" y="-3.8139" width="0.1300" height="3.8139" ry="0.0400" fill="currentColor"/>
</g>
<g transform="translate(9.3358, 4.7790)">
<path transform="scale(0.0040, -0.0040)" d="M266 -635h-6c-108 0 -195 88 -195 197c0 58 53 103 112 103c54 0 95 -47 95 -103c0 -52 -43 -95 -95 -95c-11 0 -21 2 -31 6c26 -39 68 -65 117 -65h4zM461 -203c68 24 113 95 113 164c0 90 -66 179 -173 190c24 -116 46 -231 60 -354zM74 28c0 -135 129 -247 264 -247
c28 0 55 2 82 6c-14 127 -37 245 -63 364c-79 -8 -124 -61 -124 -119c0 -44 25 -91 81 -123c5 -5 7 -10 7 -15c0 -11 -10 -22 -22 -22c-3 0 -6 1 -9 2c-80 43 -117 115 -117 185c0 88 58 174 160 197c-14 58 -29 117 -46 175c-107 -121 -213 -243 -213 -403zM335 -262
c-188 0 -333 172 -333 374c0 177 131 306 248 441c-19 62 -37 125 -45 190c-6 52 -7 104 -7 156c0 115 55 224 149 292c6 5 14 5 20 0c71 -84 133 -245 133 -358c0 -143 -86 -255 -180 -364c21 -68 39 -138 56 -207c4 0 9 1 13 1c155 0 256 -128 256 -261
c0 -76 -33 -154 -107 -210c-22 -17 -47 -28 -73 -36c3 -35 5 -70 5 -105c0 -19 -1 -39 -2 -58c-7 -119 -88 -225 -202 -228l1 43c93 2 153 92 159 191c1 18 2 37 2 55c0 31 -1 61 -4 92c-29 -5 -58 -8 -89 -8zM428 916c0 55 -4 79 -20 129c-99 -48 -162 -149 -162 -259
c0 -74 18 -133 36 -194c80 97 146 198 146 324z" fill="currentColor"/>
</g>
<g transform="translate(36.5528, 12.7790)">
<rect x="-0.0650" y="-1.8139" width="0.1300" height="2.6186" ry="0.0400" fill="currentColor"/>
</g>
<a style="color:inherit;" xlink:href="textedit:///home/mike/code/lilypond-scripts/piano/scales/abrsm/g-major-two-octaves-hands-together.ly:38:10:11">
<g transform="translate(41.4962, 9.7790)">
<path transform="scale(0.0040, -0.0040)" d="M218 136c55 0 108 -28 108 -89c0 -71 -55 -121 -102 -149c-35 -21 -75 -34 -116 -34c-55 0 -108 28 -108 89c0 71 55 121 102 149c35 21 75 34 116 34z" fill="currentColor"/>
</g>
</a>
<a style="color:inherit;" xlink:href="textedit:///home/mike/code/lilypond-scripts/piano/scales/abrsm/g-major-two-octaves-hands-together.ly:18:4:5">
<g transform="translate(12.8358, 1.7790)">
<path transform="scale(0.0040, -0.0040)" d="M216 -312c0 -10 -8 -19 -18 -19s-19 9 -19 19v145l-83 -31v-158c0 -10 -9 -19 -19 -19s-18 9 -18 19v145l-32 -12c-2 -1 -5 -1 -7 -1c-11 0 -20 9 -20 20v60c0 8 5 16 13 19l46 16v160l-32 -11c-2 -1 -5 -1 -7 -1c-11 0 -20 9 -20 20v60c0 8 5 15 13 18l46 17v158
c0 10 8 19 18 19s19 -9 19 -19v-145l83 31v158c0 10 9 19 19 19s18 -9 18 -19v-145l32 12c2 1 5 1 7 1c11 0 20 -9 20 -20v-60c0 -8 -5 -16 -13 -19l-46 -16v-160l32 11c2 1 5 1 7 1c11 0 20 -9 20 -20v-60c0 -8 -5 -15 -13 -18l-46 -17v-158zM96 65v-160l83 30v160z" fill="currentColor"/>
</g>
</a>
<g transform="translate(36.5528, 3.7790)">
<rect x="-0.0650" y="0.6861" width="0.1300" height="2.3070" ry="0.0400" fill="currentColor"/>
</g>
<a style="color:inherit;" xlink:href="textedit:///home/mike/code/lilypond-scripts/piano/scales/abrsm/g-major-two-octaves-hands-together.ly:38:6:7">
<g transform="translate(36.4878, 10.7790)">
<path transform="scale(0.0040, -0.0040)" d="M218 136c55 0 108 -28 108 -89c0 -71 -55 -121 -102 -149c-35 -21 -75 -34 -116 -34c-55 0 -108 28 -108 89c0 71 55 121 102 149c35 21 75 34 116 34z" fill="currentColor"/>
</g>
</a>
<a style="color:inherit;" xlink:href="textedit:///home/mike/code/lilypond-scripts/piano/scales/abrsm/g-major-two-octaves-hands-together.ly:28:6:7">
<g transform="translate(36.4878, 4.2790)">
<path transform="scale(0.0040, -0.0040)" d="M218 136c55 0 108 -28 108 -89c0 -71 -55 -121 -102 -149c-35 -21 -75 -34 -116 -34c-55 0 -108 28 -108 89c0 71 55 121 102 149c35 21 75 34 116 34z" fill="currentColor"/>
</g>
</a>
<a style="color:inherit;" xlink:href="textedit:///home/mike/code/lilypond-scripts/piano/scales/abrsm/g-major-two-octaves-hands-together.ly:28:10:11">
<g transform="translate(41.4962, 3.2790)">
<path transform="scale(0.0040, -0.0040)" d="M218 136c55 0 108 -28 108 -89c0 -71 -55 -121 -102 -149c-35 -21 -75 -34 -116 -34c-55 0 -108 28 -108 89c0 71 55 121 102 149c35 21 75 34 116 34z" fill="currentColor"/>
</g>
</a>
<g transform="translate(39.0570, 12.7790)">
<rect x="-0.0650" y="-2.3139" width="0.1300" height="2.9155" ry="0.0400" fill="currentColor"/>
</g>
<g transform="translate(39.0570, 3.7790)">
<rect x="-0.0650" y="0.1861" width="0.1300" height="2.5416" ry="0.0400" fill="currentColor"/>
</g>
<a style="color:inherit;" xlink:href="textedit:///home/mike/code/lilypond-scripts/piano/scales/abrsm/g-major-two-octaves-hands-together.ly:38:8:9">
<g transform="translate(38.9920, 10.2790)">
<path transform="scale(0.0040, -0.0040)" d="M218 136c55 0 108 -28 108 -89c0 -71 -55 -121 -102 -149c-35 -21 -75 -34 -116 -34c-55 0 -108 28 -108 89c0 71 55 121 102 149c35 21 75 34 116 34z" fill="currentColor"/>
</g>
</a>
<a style="color:inherit;" xlink:href="textedit:///home/mike/code/lilypond-scripts/piano/scales/abrsm/g-major-two-octaves-hands-together.ly:28:8:9">
<g transform="translate(38.9920, 3.7790)">
<path transform="scale(0.0040, -0.0040)" d="M218 136c55 0 108 -28 108 -89c0 -71 -55 -121 -102 -149c-35 -21 -75 -34 -116 -34c-55 0 -108 28 -108 89c0 71 55 121 102 149c35 21 75 34 116 34z" fill="currentColor"/>
</g>
</a>
<a style="color:inherit;" xlink:href="textedit:///home/mike/code/lilypond-scripts/piano/scales/abrsm/g-major-two-octaves-hands-together.ly:27:4:5">
<g transform="translate(16.4358, 8.2790)">
<path transform="scale(0.0040, -0.0040)" d="M218 136c55 0 108 -28 108 -89c0 -71 -55 -121 -102 -149c-35 -21 -75 -34 -116 -34c-55 0 -108 28 -108 89c0 71 55 121 102 149c35 21 75 34 116 34z" fill="currentColor"/>
</g>
</a>
</svg>
