<svg xmlns="http://www.w3.org/2000/svg" xmlns:xlink="http://www.w3.org/1999/xlink" version="1.2" width="210.00mm" height="297.00mm" viewBox="0 0 119.5016 169.0094">
<style type="text/css">
<![CDATA[
tspan { white-space: pre; }
]]>
</style>
<!-- Page: 1/1 -->
<g transform="translate(14.2264, 11.0512)">
<line stroke-linejoin="round" stroke-linecap="round" stroke-width="0.1000" stroke="currentColor" x1="0.0500" y1="0" x2="50.0542" y2="0"/>
</g>
<g transform="translate(14.2264, 10.0512)">
<line stroke-linejoin="round" stroke-linecap="round" stroke-width="0.1000" stroke="currentColor" x1="0.0500" y1="0" x2="50.0542" y2="0"/>
</g>
<g transform="translate(14.2264, 9.0512)">
<line stroke-linejoin="round" stroke-linecap="round" stroke-width="0.1000" stroke="currentColor" x1="0.0500" y1="0" x2="50.0542" y2="0"/>
</g>
<g transform="translate(14.2264, 8.0512)">
<line stroke-linejoin="round" stroke-linecap="round" stroke-width="0.1000" stroke="currentColor" x1="0.0500" y1="0" x2="50.0542" y2="0"/>
</g>
<g transform="translate(14.2264, 7.0512)">
<line stroke-linejoin="round" stroke-linecap="round" stroke-width="0.1000" stroke="currentColor" x1="0.0500" y1="0" x2="50.0542" y2="0"/>
</g>
<g transform="translate(5.6906, 6.0512)">
<rect x="34.3098" y="-0.1000" width="1.9563" height="0.2000" ry="0.1000" fill="currentColor"/>
</g>
<a style="color:inherit;" xlink:href="textedit:///home/mike/code/lilypond-scripts/piano/template-inputs.ly:5:37:38">
<g transform="translate(46.1264, 7.0512)">
<path transform="scale(0.0040, -0.0040)" d="M218 136c55 0 108 -28 108 -89c0 -71 -55 -121 -102 -149c-35 -21 -75 -34 -116 -34c-55 0 -108 28 -108 89c0 71 55 121 102 149c35 21 75 34 116 34z" fill="currentColor"/>
</g>
</a>
<a style="color:inherit;" xlink:href="textedit:///home/mike/code/lilypond-scripts/piano/template-inputs.ly:5:38:39">
<g transform="translate(46.3858, 6.0061)">
<path transform="scale(0.0022, -0.0022)" d="M155 471c-34 0 -70 -8 -70 -38c0 -19 31 -23 31 -42c0 -28 -23 -51 -51 -51s-51 23 -51 51c0 67 68 109 141 109c93 0 174 -31 174 -113c0 -41 -6 -77 -42 -94c-11 -5 -17 -16 -17 -27s6 -22 17 -27c40 -19 59 -53 59 -98c0 -94 -83 -141 -186 -141
c-82 0 -160 45 -160 119c0 32 26 58 58 58s58 -26 58 -58c0 -22 -36 -26 -36 -48c0 -33 42 -42 80 -42c46 0 56 58 56 112v38c0 40 -4 69 -43 69h-74c-12 0 -18 9 -18 18s6 18 18 18h74c40 0 43 31 43 73v30c0 50 -16 84 -61 84z" fill="currentColor"/>
</g>
</a>
<g transform="translate(46.1914, 9.0512)">
<rect x="-0.0650" y="-1.8139" width="0.1300" height="3.0859" ry="0.0400" fill="currentColor"/>
</g>
<a style="color:inherit;" xlink:href="textedit:///home/mike/code/lilypond-scripts/piano/template-inputs.ly:5:41:42">
<g transform="translate(49.0264, 7.5512)">
<path transform="scale(0.0040, -0.0040)" d="M218 136c55 0 108 -28 108 -89c0 -71 -55 -121 -102 -149c-35 -21 -75 -34 -116 -34c-55 0 -108 28 -108 89c0 71 55 121 102 149c35 21 75 34 116 34z" fill="currentColor"/>
</g>
</a>
<a style="color:inherit;" xlink:href="textedit:///home/mike/code/lilypond-scripts/piano/template-inputs.ly:5:42:43">
<g transform="translate(49.2858, 6.5012)">
<path transform="scale(0.0022, -0.0022)" d="M129 129h130c0 -52 32 -100 81 -100c10 0 14 -8 14 -15s-4 -14 -14 -14c-49 0 -97 14 -146 14s-96 -14 -145 -14c-10 0 -15 7 -15 14s5 15 15 15c49 0 80 48 80 100zM0 250l129 250c3 7 13 3 21 0c14 -6 28 -14 44 -14s31 8 45 14c2 1 2 1 4 1c8 0 16 -9 16 -21v-351
h-130v215c0 15 -11 23 -20 23c-5 0 -9 -2 -11 -7l-66 -127c-4 -7 -9 -9 -15 -9c-9 0 -19 7 -19 17c0 3 0 6 2 9z" fill="currentColor"/>
</g>
</a>
<g transform="translate(49.0914, 9.0512)">
<rect x="-0.0650" y="-1.3139" width="0.1300" height="2.8519" ry="0.0400" fill="currentColor"/>
</g>
<g transform="translate(20.0264, 12.0512)">
<polygon stroke-linejoin="round" stroke-linecap="round" stroke-width="0.0800" fill="currentColor" stroke="currentColor" points="8.7900 -1.0100 8.7900 -0.6100 0.0400 0.2000 0.0400 -0.2000"/>
</g>
<a style="color:inherit;" xlink:href="textedit:///home/mike/code/lilypond-scripts/piano/template-inputs.ly:5:31:32">
<g transform="translate(40.3264, 6.0512)">
<path transform="scale(0.0040, -0.0040)" d="M218 136c55 0 108 -28 108 -89c0 -71 -55 -121 -102 -149c-35 -21 -75 -34 -116 -34c-55 0 -108 28 -108 89c0 71 55 121 102 149c35 21 75 34 116 34z" fill="currentColor"/>
</g>
</a>
<a style="color:inherit;" xlink:href="textedit:///home/mike/code/lilypond-scripts/piano/template-inputs.ly:5:32:33">
<g transform="translate(40.5858, 5.0061)">
<path transform="scale(0.0022, -0.0022)" d="M129 129h130c0 -52 32 -100 81 -100c10 0 14 -8 14 -15s-4 -14 -14 -14c-49 0 -97 14 -146 14s-96 -14 -145 -14c-10 0 -15 7 -15 14s5 15 15 15c49 0 80 48 80 100zM0 250l129 250c3 7 13 3 21 0c14 -6 28 -14 44 -14s31 8 45 14c2 1 2 1 4 1c8 0 16 -9 16 -21v-351
h-130v215c0 15 -11 23 -20 23c-5 0 -9 -2 -11 -7l-66 -127c-4 -7 -9 -9 -15 -9c-9 0 -19 7 -19 17c0 3 0 6 2 9z" fill="currentColor"/>
</g>
</a>
<g transform="translate(40.3914, 9.0512)">
<rect x="-0.0650" y="-2.8139" width="0.1300" height="3.0113" ry="0.0400" fill="currentColor"/>
</g>
<a style="color:inherit;" xlink:href="textedit:///home/mike/code/lilypond-scripts/piano/template-inputs.ly:5:35:36">
<g transform="translate(43.2264, 6.5512)">
<path transform="scale(0.0040, -0.0040)" d="M218 136c55 0 108 -28 108 -89c0 -71 -55 -121 -102 -149c-35 -21 -75 -34 -116 -34c-55 0 -108 28 -108 89c0 71 55 121 102 149c35 21 75 34 116 34z" fill="currentColor"/>
</g>
</a>
<g transform="translate(43.2914, 9.0512)">
<rect x="-0.0650" y="-2.3139" width="0.1300" height="3.3199" ry="0.0400" fill="currentColor"/>
</g>
<a style="color:inherit;" xlink:href="textedit:///home/mike/code/lilypond-scripts/piano/template-inputs.ly:5:51:52">
<g transform="translate(60.6264, 9.5512)">
<path transform="scale(0.0040, -0.0040)" d="M218 136c55 0 108 -28 108 -89c0 -71 -55 -121 -102 -149c-35 -21 -75 -34 -116 -34c-55 0 -108 28 -108 89c0 71 55 121 102 149c35 21 75 34 116 34z" fill="currentColor"/>
</g>
</a>
<a style="color:inherit;" xlink:href="textedit:///home/mike/code/lilypond-scripts/piano/template-inputs.ly:5:53:54">
<g transform="translate(60.8858, 6.5012)">
<path transform="scale(0.0022, -0.0022)" d="M54 500c45 -8 91 -14 137 -14s92 6 137 14h4c11 0 19 -7 19 -14c0 -2 -1 -4 -3 -6c-68 -68 -162 -101 -258 -101c-11 0 -20 -10 -20 -21v-73c27 27 67 36 106 36c117 0 188 -50 188 -161c0 -97 -96 -160 -200 -160c-84 0 -164 43 -164 119c0 32 26 58 58 58
s58 -26 58 -58c0 -22 -36 -26 -36 -48c0 -35 44 -42 84 -42c55 0 71 67 71 131c0 59 -8 125 -59 125c-42 0 -85 -5 -109 -38c-4 -5 -10 -8 -15 -8c-9 0 -18 7 -18 18v223c0 11 8 20 18 20h2z" fill="currentColor"/>
</g>
</a>
<g transform="translate(61.8656, 9.0512)">
<rect x="-0.0650" y="-3.0000" width="0.1300" height="3.3139" ry="0.0400" fill="currentColor"/>
</g>
<g transform="translate(54.8264, 11.8612)">
<polygon stroke-linejoin="round" stroke-linecap="round" stroke-width="0.0800" fill="currentColor" stroke="currentColor" points="2.9900 -0.0100 2.9900 0.3900 0.0400 0.2000 0.0400 -0.2000"/>
</g>
<g transform="translate(43.2264, 10.0512)">
<polygon stroke-linejoin="round" stroke-linecap="round" stroke-width="0.0800" fill="currentColor" stroke="currentColor" points="8.7900 0.6100 8.7900 1.0100 0.0400 0.2000 0.0400 -0.2000"/>
</g>
<g transform="translate(31.6264, 10.2412)">
<polygon stroke-linejoin="round" stroke-linecap="round" stroke-width="0.0800" fill="currentColor" stroke="currentColor" points="8.7900 -1.2000 8.7900 -0.8000 0.0400 0.2000 0.0400 -0.2000"/>
</g>
<g transform="translate(57.7914, 9.0512)">
<rect x="-0.0650" y="0.1861" width="0.1300" height="2.8098" ry="0.0400" fill="currentColor"/>
</g>
<a style="color:inherit;" xlink:href="textedit:///home/mike/code/lilypond-scripts/piano/template-inputs.ly:5:49:50">
<g transform="translate(57.7264, 9.0512)">
<path transform="scale(0.0040, -0.0040)" d="M218 136c55 0 108 -28 108 -89c0 -71 -55 -121 -102 -149c-35 -21 -75 -34 -116 -34c-55 0 -108 28 -108 89c0 71 55 121 102 149c35 21 75 34 116 34z" fill="currentColor"/>
</g>
</a>
<g transform="translate(54.8914, 9.0512)">
<rect x="-0.0650" y="-0.3139" width="0.1300" height="3.1280" ry="0.0400" fill="currentColor"/>
</g>
<a style="color:inherit;" xlink:href="textedit:///home/mike/code/lilypond-scripts/piano/template-inputs.ly:5:47:48">
<g transform="translate(54.8264, 8.5512)">
<path transform="scale(0.0040, -0.0040)" d="M218 136c55 0 108 -28 108 -89c0 -71 -55 -121 -102 -149c-35 -21 -75 -34 -116 -34c-55 0 -108 28 -108 89c0 71 55 121 102 149c35 21 75 34 116 34z" fill="currentColor"/>
</g>
</a>
<g transform="translate(51.9914, 9.0512)">
<rect x="-0.0650" y="-0.8139" width="0.1300" height="2.6179" ry="0.0400" fill="currentColor"/>
</g>
<a style="color:inherit;" xlink:href="textedit:///home/mike/code/lilypond-scripts/piano/template-inputs.ly:5:45:46">
<g transform="translate(51.9264, 8.0512)">
<path transform="scale(0.0040, -0.0040)" d="M218 136c55 0 108 -28 108 -89c0 -71 -55 -121 -102 -149c-35 -21 -75 -34 -116 -34c-55 0 -108 28 -108 89c0 71 55 121 102 149c35 21 75 34 116 34z" fill="currentColor"/>
</g>
</a>
<a style="color:inherit;" xlink:href="textedit:///home/mike/code/lilypond-scripts/piano/template-inputs.ly:5:15:16">
<g transform="translate(22.9264, 9.0512)">
<path transform="scale(0.0040, -0.0040)" d="M218 136c55 0 108 -28 108 -89c0 -71 -55 -121 -102 -149c-35 -21 -75 -34 -116 -34c-55 0 -108 28 -108 89c0 71 55 121 102 149c35 21 75 34 116 34z" fill="currentColor"/>
</g>
</a>
<g transform="translate(22.9914, 9.0512)">
<rect x="-0.0650" y="0.1861" width="0.1300" height="2.5419" ry="0.0400" fill="currentColor"/>
</g>
<a style="color:inherit;" xlink:href="textedit:///home/mike/code/lilypond-scripts/piano/template-inputs.ly:5:17:18">
<g transform="translate(25.8264, 8.5512)">
<path transform="scale(0.0040, -0.0040)" d="M218 136c55 0 108 -28 108 -89c0 -71 -55 -121 -102 -149c-35 -21 -75 -34 -116 -34c-55 0 -108 28 -108 89c0 71 55 121 102 149c35 21 75 34 116 34z" fill="currentColor"/>
</g>
</a>
<g transform="translate(37.4914, 9.0512)">
<rect x="-0.0650" y="-2.3139" width="0.1300" height="2.8397" ry="0.0400" fill="currentColor"/>
</g>
<a style="color:inherit;" xlink:href="textedit:///home/mike/code/lilypond-scripts/piano/template-inputs.ly:5:19:20">
<g transform="translate(28.7264, 8.0512)">
<path transform="scale(0.0040, -0.0040)" d="M218 136c55 0 108 -28 108 -89c0 -71 -55 -121 -102 -149c-35 -21 -75 -34 -116 -34c-55 0 -108 28 -108 89c0 71 55 121 102 149c35 21 75 34 116 34z" fill="currentColor"/>
</g>
</a>
<g transform="translate(25.8914, 9.0512)">
<rect x="-0.0650" y="-0.3139" width="0.1300" height="2.7759" ry="0.0400" fill="currentColor"/>
</g>
<g transform="translate(20.0914, 9.0512)">
<rect x="-0.0650" y="0.6861" width="0.1300" height="2.3079" ry="0.0400" fill="currentColor"/>
</g>
<a style="color:inherit;" xlink:href="textedit:///home/mike/code/lilypond-scripts/piano/template-inputs.ly:3:8:9">
</a>
<g transform="translate(15.0264, 8.0512)">
<path transform="scale(0.0040, -0.0040)" d="M557 -125c0 28 23 51 51 51s51 -23 51 -51s-23 -51 -51 -51s-51 23 -51 51zM557 125c0 28 23 51 51 51s51 -23 51 -51s-23 -51 -51 -51s-51 23 -51 51zM232 263c172 0 293 -88 293 -251c0 -263 -263 -414 -516 -521c-3 -3 -6 -4 -9 -4c-7 0 -13 6 -13 13c0 3 1 6 4 9
c202 118 412 265 412 493c0 120 -63 235 -171 235c-74 0 -129 -54 -154 -126c11 5 22 8 34 8c55 0 100 -45 100 -100c0 -58 -44 -106 -100 -106c-60 0 -112 47 -112 106c0 133 102 244 232 244z" fill="currentColor"/>
</g>
<a style="color:inherit;" xlink:href="textedit:///home/mike/code/lilypond-scripts/piano/template-inputs.ly:5:12:13">
<g transform="translate(20.2858, 6.5012)">
<path transform="scale(0.0022, -0.0022)" d="M54 500c45 -8 91 -14 137 -14s92 6 137 14h4c11 0 19 -7 19 -14c0 -2 -1 -4 -3 -6c-68 -68 -162 -101 -258 -101c-11 0 -20 -10 -20 -21v-73c27 27 67 36 106 36c117 0 188 -50 188 -161c0 -97 -96 -160 -200 -160c-84 0 -164 43 -164 119c0 32 26 58 58 58
s58 -26 58 -58c0 -22 -36 -26 -36 -48c0 -35 44 -42 84 -42c55 0 71 67 71 131c0 59 -8 125 -59 125c-42 0 -85 -5 -109 -38c-4 -5 -10 -8 -15 -8c-9 0 -18 7 -18 18v223c0 11 8 20 18 20h2z" fill="currentColor"/>
</g>
</a>
<a style="color:inherit;" xlink:href="textedit:///home/mike/code/lilypond-scripts/piano/template-inputs.ly:5:10:11">
<g transform="translate(20.0264, 9.5512)">
<path transform="scale(0.0040, -0.0040)" d="M218 136c55 0 108 -28 108 -89c0 -71 -55 -121 -102 -149c-35 -21 -75 -34 -116 -34c-55 0 -108 28 -108 89c0 71 55 121 102 149c35 21 75 34 116 34z" fill="currentColor"/>
</g>
</a>
<a style="color:inherit;" xlink:href="textedit:///home/mike/code/lilypond-scripts/piano/template-inputs.ly:5:29:30">
<g transform="translate(37.4264, 6.5512)">
<path transform="scale(0.0040, -0.0040)" d="M218 136c55 0 108 -28 108 -89c0 -71 -55 -121 -102 -149c-35 -21 -75 -34 -116 -34c-55 0 -108 28 -108 89c0 71 55 121 102 149c35 21 75 34 116 34z" fill="currentColor"/>
</g>
</a>
<g transform="translate(34.5914, 9.0512)">
<rect x="-0.0650" y="-1.8139" width="0.1300" height="2.6681" ry="0.0400" fill="currentColor"/>
</g>
<a style="color:inherit;" xlink:href="textedit:///home/mike/code/lilypond-scripts/piano/template-inputs.ly:5:26:27">
<g transform="translate(34.7858, 6.0061)">
<path transform="scale(0.0022, -0.0022)" d="M155 471c-34 0 -70 -8 -70 -38c0 -19 31 -23 31 -42c0 -28 -23 -51 -51 -51s-51 23 -51 51c0 67 68 109 141 109c93 0 174 -31 174 -113c0 -41 -6 -77 -42 -94c-11 -5 -17 -16 -17 -27s6 -22 17 -27c40 -19 59 -53 59 -98c0 -94 -83 -141 -186 -141
c-82 0 -160 45 -160 119c0 32 26 58 58 58s58 -26 58 -58c0 -22 -36 -26 -36 -48c0 -33 42 -42 80 -42c46 0 56 58 56 112v38c0 40 -4 69 -43 69h-74c-12 0 -18 9 -18 18s6 18 18 18h74c40 0 43 31 43 73v30c0 50 -16 84 -61 84z" fill="currentColor"/>
</g>
</a>
<a style="color:inherit;" xlink:href="textedit:///home/mike/code/lilypond-scripts/piano/template-inputs.ly:5:25:26">
<g transform="translate(34.5264, 7.0512)">
<path transform="scale(0.0040, -0.0040)" d="M218 136c55 0 108 -28 108 -89c0 -71 -55 -121 -102 -149c-35 -21 -75 -34 -116 -34c-55 0 -108 28 -108 89c0 71 55 121 102 149c35 21 75 34 116 34z" fill="currentColor"/>
</g>
</a>
<g transform="translate(28.7914, 9.0512)">
<rect x="-0.0650" y="-0.8139" width="0.1300" height="3.0099" ry="0.0400" fill="currentColor"/>
</g>
<g transform="translate(31.6914, 9.0512)">
<rect x="-0.0650" y="-1.3139" width="0.1300" height="2.4965" ry="0.0400" fill="currentColor"/>
</g>
<a style="color:inherit;" xlink:href="textedit:///home/mike/code/lilypond-scripts/piano/template-inputs.ly:5:22:23">
<g transform="translate(31.8858, 6.5012)">
<path transform="scale(0.0022, -0.0022)" d="M129 129h130c0 -52 32 -100 81 -100c10 0 14 -8 14 -15s-4 -14 -14 -14c-49 0 -97 14 -146 14s-96 -14 -145 -14c-10 0 -15 7 -15 14s5 15 15 15c49 0 80 48 80 100zM0 250l129 250c3 7 13 3 21 0c14 -6 28 -14 44 -14s31 8 45 14c2 1 2 1 4 1c8 0 16 -9 16 -21v-351
h-130v215c0 15 -11 23 -20 23c-5 0 -9 -2 -11 -7l-66 -127c-4 -7 -9 -9 -15 -9c-9 0 -19 7 -19 17c0 3 0 6 2 9z" fill="currentColor"/>
</g>
</a>
<a style="color:inherit;" xlink:href="textedit:///home/mike/code/lilypond-scripts/piano/template-inputs.ly:5:21:22">
<g transform="translate(31.6264, 7.5512)">
<path transform="scale(0.0040, -0.0040)" d="M218 136c55 0 108 -28 108 -89c0 -71 -55 -121 -102 -149c-35 -21 -75 -34 -116 -34c-55 0 -108 28 -108 89c0 71 55 121 102 149c35 21 75 34 116 34z" fill="currentColor"/>
</g>
</a>
</svg>
